<?xml version="1.0" encoding="iso-8859-1"?>
<!-- Generator: Adobe Illustrator 19.0.0, SVG Export Plug-In . SVG Version: 6.00 Build 0)  -->
<svg version="1.1" id="Layer_1" xmlns="http://www.w3.org/2000/svg" xmlns:xlink="http://www.w3.org/1999/xlink" x="0px" y="0px"
	 viewBox="0 0 300 300" style="enable-background:new 0 0 300 300;" xml:space="preserve">
<g>
	<g>
		<path d="M150,0C67.157,0,0,67.157,0,150c0,82.841,67.157,150,150,150c82.838,0,150-67.162,150-150C300,67.159,232.838,0,150,0z
			 M217.343,203.764c0,3.704-1.979,7.132-5.187,8.982c-1.605,0.926-3.4,1.393-5.187,1.393c-1.792,0-3.582-0.467-5.187-1.393
			l-81.103-46.823c-0.993-0.573-1.854-1.312-2.594-2.153v35.955c0,9.498-7.7,17.198-17.198,17.198s-17.198-7.7-17.198-17.198
			v-89.078h0.002c0-9.498,7.7-17.198,17.198-17.198c9.498,0,17.198,7.7,17.198,17.198v39.465c0.739-0.84,1.6-1.58,2.594-2.155
			l81.1-46.823c3.211-1.854,7.164-1.854,10.375,0c3.208,1.852,5.187,5.278,5.187,8.984V203.764z"/>
	</g>
</g>
<g>
</g>
<g>
</g>
<g>
</g>
<g>
</g>
<g>
</g>
<g>
</g>
<g>
</g>
<g>
</g>
<g>
</g>
<g>
</g>
<g>
</g>
<g>
</g>
<g>
</g>
<g>
</g>
<g>
</g>
</svg>
