<?xml version="1.0" encoding="iso-8859-1"?>
<!-- Generator: Adobe Illustrator 19.0.0, SVG Export Plug-In . SVG Version: 6.00 Build 0)  -->
<svg version="1.1" id="Layer_1" xmlns="http://www.w3.org/2000/svg" xmlns:xlink="http://www.w3.org/1999/xlink" x="0px" y="0px"
	 viewBox="0 0 300 300" style="enable-background:new 0 0 300 300;" xml:space="preserve">
<g>
	<g>
		<path d="M150,0C67.157,0,0,67.157,0,150s67.157,150,150,150s150-67.157,150-150S232.843,0,150,0z M223.413,128.844l-76.696,69.434
			c-1.88,1.704-4.072,2.85-6.367,3.452c-1.979,0.882-4.103,1.338-6.235,1.338c-3.794,0-7.594-1.398-10.566-4.217l-47.222-44.826
			c-6.147-5.836-6.398-15.549-0.563-21.696c5.83-6.147,15.546-6.401,21.696-0.565l37.587,35.678l67.764-61.355
			c6.282-5.688,15.987-5.208,21.675,1.076C230.174,113.448,229.694,123.153,223.413,128.844z"/>
	</g>
</g>
<g>
</g>
<g>
</g>
<g>
</g>
<g>
</g>
<g>
</g>
<g>
</g>
<g>
</g>
<g>
</g>
<g>
</g>
<g>
</g>
<g>
</g>
<g>
</g>
<g>
</g>
<g>
</g>
<g>
</g>
</svg>
