<?xml version="1.0" encoding="iso-8859-1"?>
<!-- Generator: Adobe Illustrator 19.0.0, SVG Export Plug-In . SVG Version: 6.00 Build 0)  -->
<svg version="1.1" id="Layer_1" xmlns="http://www.w3.org/2000/svg" xmlns:xlink="http://www.w3.org/1999/xlink" x="0px" y="0px"
	 viewBox="0 0 300.003 300.003" style="enable-background:new 0 0 300.003 300.003;" xml:space="preserve">
<g>
	<g>
		<path d="M150,0C67.159,0,0.001,67.159,0.001,150c0,82.838,67.157,150.003,149.997,150.003S300.002,232.838,300.002,150
			C300.002,67.159,232.842,0,150,0z M217.685,131.647l-56.046,56.046c-0.537,0.838-1.146,1.637-1.88,2.365
			c-2.796,2.799-6.484,4.145-10.146,4.08c-3.667,0.062-7.345-1.281-10.141-4.077c-0.734-0.731-1.351-1.53-1.891-2.368l-56.29-56.297
			c-2.736-2.731-4.108-6.315-4.103-9.897c-0.005-3.584,1.367-7.166,4.098-9.902c5.47-5.47,14.335-5.467,19.808,0l48.519,48.514
			l48.262-48.27c5.47-5.47,14.338-5.465,19.81,0C223.156,117.31,223.149,126.175,217.685,131.647z"/>
	</g>
</g>
<g>
</g>
<g>
</g>
<g>
</g>
<g>
</g>
<g>
</g>
<g>
</g>
<g>
</g>
<g>
</g>
<g>
</g>
<g>
</g>
<g>
</g>
<g>
</g>
<g>
</g>
<g>
</g>
<g>
</g>
</svg>
