<?xml version="1.0" encoding="iso-8859-1"?>
<!-- Generator: Adobe Illustrator 19.0.0, SVG Export Plug-In . SVG Version: 6.00 Build 0)  -->
<svg version="1.1" id="Layer_1" xmlns="http://www.w3.org/2000/svg" xmlns:xlink="http://www.w3.org/1999/xlink" x="0px" y="0px"
	 viewBox="0 0 300 300" style="enable-background:new 0 0 300 300;" xml:space="preserve">
<g>
	<g>
		<path d="M150.003,0C67.162,0,0,67.159,0,150s67.162,150,150.003,150S300,232.838,300,150C300,67.157,232.843,0,150.003,0z
			 M208.276,214.356H90.736c-8.118,0-14.698-6.58-14.698-14.696c0-8.121,6.58-14.701,14.698-14.701h117.538
			c8.118,0,14.698,6.58,14.698,14.701C222.974,207.773,216.394,214.356,208.276,214.356z M210.006,166.374c-0.01,0-0.031,0-0.049,0
			c-0.01,0-0.023,0-0.036,0H89.039c-0.311-0.005-0.456-0.005-0.68-0.01c-0.005,0-0.008,0-0.013,0
			c-1.398-0.07-2.741-0.34-3.989-0.786c-1.323-0.472-2.583-1.149-3.719-2.041c-0.005,0-0.005-0.005-0.01-0.005
			c-0.192-0.153-0.381-0.309-0.565-0.472c0,0-0.005-0.005-0.01-0.01c-1.289-1.139-2.272-2.467-2.944-3.901
			c-0.672-1.424-1.05-2.998-1.074-4.645c0-0.054,0-0.101,0-0.153c0-0.202,0.005-0.399,0.016-0.602
			c0.07-1.333,0.376-2.604,0.877-3.792c0.506-1.193,1.229-2.332,2.168-3.367c0.143-0.153,0.285-0.303,0.436-0.451l60.458-60.224
			c2.454-2.443,5.89-3.833,9.493-3.833c3.603,0,7.039,1.388,9.493,3.833l59.822,59.596c2.568,2.199,4.176,5.345,4.176,8.844
			C222.974,160.992,217.167,166.374,210.006,166.374z"/>
	</g>
</g>
<g>
</g>
<g>
</g>
<g>
</g>
<g>
</g>
<g>
</g>
<g>
</g>
<g>
</g>
<g>
</g>
<g>
</g>
<g>
</g>
<g>
</g>
<g>
</g>
<g>
</g>
<g>
</g>
<g>
</g>
</svg>
