<?xml version="1.0" encoding="iso-8859-1"?>
<!-- Generator: Adobe Illustrator 19.0.0, SVG Export Plug-In . SVG Version: 6.00 Build 0)  -->
<svg version="1.1" id="Layer_1" xmlns="http://www.w3.org/2000/svg" xmlns:xlink="http://www.w3.org/1999/xlink" x="0px" y="0px"
	 viewBox="0 0 300 300" style="enable-background:new 0 0 300 300;" xml:space="preserve">
<g>
	<g>
		<path d="M150,0C67.157,0,0,67.157,0,150c0,82.841,67.157,150,150,150c82.838,0,150-67.159,150-150C300,67.157,232.838,0,150,0z
			 M235.188,157.228l-71.532,41.301c-1.289,0.744-2.731,1.123-4.171,1.123s-2.879-0.379-4.171-1.123
			c-2.583-1.489-4.173-4.246-4.173-7.226v-33.899l-71.239,41.125c-1.292,0.744-2.734,1.123-4.173,1.123
			c-1.439,0-2.879-0.379-4.171-1.123c-2.583-1.489-4.173-4.246-4.173-7.226v-82.605c0-2.977,1.59-5.74,4.173-7.228
			c2.583-1.489,5.76-1.489,8.346,0l71.237,41.132v-33.904c0-2.977,1.587-5.74,4.171-7.228c2.583-1.489,5.766-1.489,8.349,0
			l71.532,41.304c2.583,1.486,4.178,4.248,4.168,7.226C239.364,152.98,237.771,155.74,235.188,157.228z"/>
	</g>
</g>
<g>
</g>
<g>
</g>
<g>
</g>
<g>
</g>
<g>
</g>
<g>
</g>
<g>
</g>
<g>
</g>
<g>
</g>
<g>
</g>
<g>
</g>
<g>
</g>
<g>
</g>
<g>
</g>
<g>
</g>
</svg>
