<?xml version="1.0" encoding="iso-8859-1"?>
<!-- Generator: Adobe Illustrator 19.0.0, SVG Export Plug-In . SVG Version: 6.00 Build 0)  -->
<svg version="1.1" id="Layer_1" xmlns="http://www.w3.org/2000/svg" xmlns:xlink="http://www.w3.org/1999/xlink" x="0px" y="0px"
	 viewBox="0 0 300.003 300.003" style="enable-background:new 0 0 300.003 300.003;" xml:space="preserve">
<g>
	<g>
		<path d="M150.001,0c-82.838,0-150,67.159-150,150c0,82.838,67.162,150.003,150,150.003c82.843,0,150-67.165,150-150.003
			C300.001,67.159,232.843,0,150.001,0z M78.538,215.222c-6.832,0-12.372-5.54-12.372-12.369c0-6.837,5.54-12.374,12.372-12.374
			c6.832,0,12.372,5.537,12.372,12.374C90.91,209.685,85.371,215.222,78.538,215.222z M78.538,166.708
			c-6.832,0-12.372-5.54-12.372-12.372c0-6.834,5.54-12.372,12.372-12.372c6.832,0,12.372,5.537,12.372,12.372
			S85.371,166.708,78.538,166.708z M78.538,118.303c-6.832,0-12.372-5.54-12.372-12.372c0-6.834,5.54-12.372,12.372-12.372
			c6.832,0,12.372,5.537,12.372,12.372C90.91,112.766,85.371,118.303,78.538,118.303z M215.423,215.043H117.95
			c-6.73,0-12.187-5.457-12.187-12.187c0-6.733,5.457-12.19,12.187-12.19h97.474c6.73,0,12.187,5.457,12.187,12.19
			C227.609,209.586,222.15,215.043,215.423,215.043z M215.423,166.527H117.95c-6.73,0-12.187-5.457-12.187-12.187
			c0-6.733,5.457-12.19,12.187-12.19h97.474c6.73,0,12.187,5.457,12.187,12.19C227.609,161.07,222.15,166.527,215.423,166.527z
			 M215.423,118.01H117.95c-6.73,0-12.187-5.457-12.187-12.19c0-6.733,5.457-12.187,12.187-12.187h97.474
			c6.73,0,12.187,5.457,12.187,12.187C227.609,112.551,222.15,118.01,215.423,118.01z"/>
	</g>
</g>
<g>
</g>
<g>
</g>
<g>
</g>
<g>
</g>
<g>
</g>
<g>
</g>
<g>
</g>
<g>
</g>
<g>
</g>
<g>
</g>
<g>
</g>
<g>
</g>
<g>
</g>
<g>
</g>
<g>
</g>
</svg>
