<?xml version="1.0" encoding="iso-8859-1"?>
<!-- Generator: Adobe Illustrator 19.0.0, SVG Export Plug-In . SVG Version: 6.00 Build 0)  -->
<svg version="1.1" id="Layer_1" xmlns="http://www.w3.org/2000/svg" xmlns:xlink="http://www.w3.org/1999/xlink" x="0px" y="0px"
	 viewBox="0 0 300.003 300.003" style="enable-background:new 0 0 300.003 300.003;" xml:space="preserve">
<g>
	<g>
		<path d="M150.005,0C67.164,0,0.001,67.159,0.001,150c0,82.838,67.162,150.003,150.003,150.003S300.002,232.838,300.002,150
			C300.002,67.159,232.844,0,150.005,0z M214.127,185.87c-3.488,13.015-16.864,23.566-29.881,23.566
			c-13.017,0-20.739-10.551-17.25-23.566c3.486-13.017,16.866-23.568,29.881-23.568c0.327,0,0.635,0.039,0.96,0.049l0.41-46.639
			c0-2.052-2.002-4.43-3.33-5.239c-1.235-0.75-3.73-1.276-5.727-0.76l-76.058,19.872c-2.915,0.763-4.949,3.395-4.949,6.411v5.859
			l-0.029,0.008v55.584c1.273,3.608,1.458,7.848,0.233,12.411c-3.488,13.017-16.866,23.566-29.881,23.566
			c-13.02,0-20.739-10.548-17.253-23.566c3.488-13.02,16.869-23.568,29.881-23.568c0.171,0,0.335,0.023,0.501,0.029l-0.973-79.313
			c0-4.995,3.359-9.36,8.185-10.642l102.648-27.241c3.312-0.877,6.832-0.166,9.537,1.914c2.71,2.088,4.298,5.309,4.298,8.728
			l-0.986,95.14C215.198,178.177,215.19,181.909,214.127,185.87z"/>
	</g>
</g>
<g>
</g>
<g>
</g>
<g>
</g>
<g>
</g>
<g>
</g>
<g>
</g>
<g>
</g>
<g>
</g>
<g>
</g>
<g>
</g>
<g>
</g>
<g>
</g>
<g>
</g>
<g>
</g>
<g>
</g>
</svg>
