<?xml version="1.0" encoding="iso-8859-1"?>
<!-- Generator: Adobe Illustrator 19.0.0, SVG Export Plug-In . SVG Version: 6.00 Build 0)  -->
<svg version="1.1" id="Layer_1" xmlns="http://www.w3.org/2000/svg" xmlns:xlink="http://www.w3.org/1999/xlink" x="0px" y="0px"
	 viewBox="0 0 300 300" style="enable-background:new 0 0 300 300;" xml:space="preserve">
<g>
	<g>
		<path d="M150,0C67.162,0,0,67.159,0,150s67.162,150,150,150c82.843,0,150-67.162,150-150C300,67.157,232.843,0,150,0z
			 M216.312,199.725h-0.003c0,9.498-7.7,17.198-17.198,17.198c-9.498,0-17.198-7.7-17.198-17.198V163.77
			c-0.739,0.84-1.6,1.58-2.594,2.153l-81.098,46.82c-1.605,0.926-3.395,1.393-5.187,1.393c-1.787,0-3.582-0.467-5.187-1.393
			c-3.208-1.849-5.187-5.278-5.187-8.982v-93.643c0-3.706,1.979-7.132,5.187-8.984c3.211-1.854,7.164-1.854,10.375,0l81.1,46.823
			c0.993,0.576,1.854,1.315,2.594,2.155v-39.465c0-9.498,7.7-17.198,17.198-17.198s17.198,7.7,17.198,17.198V199.725z"/>
	</g>
</g>
<g>
</g>
<g>
</g>
<g>
</g>
<g>
</g>
<g>
</g>
<g>
</g>
<g>
</g>
<g>
</g>
<g>
</g>
<g>
</g>
<g>
</g>
<g>
</g>
<g>
</g>
<g>
</g>
<g>
</g>
</svg>
