<?xml version="1.0" encoding="iso-8859-1"?>
<!-- Generator: Adobe Illustrator 19.0.0, SVG Export Plug-In . SVG Version: 6.00 Build 0)  -->
<svg version="1.1" id="Layer_1" xmlns="http://www.w3.org/2000/svg" xmlns:xlink="http://www.w3.org/1999/xlink" x="0px" y="0px"
	 viewBox="0 0 300 300" style="enable-background:new 0 0 300 300;" xml:space="preserve">
<g>
	<g>
		<path d="M150.003,0C67.162,0,0,67.159,0,150c0,82.838,67.162,150,150.003,150S300,232.838,300,150C300,67.157,232.843,0,150.003,0
			z M228.439,198.529c-1.292,0.744-2.731,1.12-4.171,1.12s-2.882-0.376-4.173-1.12l-71.239-41.127v33.899
			c0,2.983-1.59,5.74-4.173,7.228c-1.292,0.744-2.734,1.12-4.173,1.12c-1.439,0-2.882-0.376-4.171-1.12l-71.54-41.301
			c-2.583-1.489-4.173-4.251-4.173-7.228c0-2.98,1.59-5.74,4.173-7.228l71.535-41.304c2.583-1.489,5.763-1.489,8.346,0
			s4.173,4.251,4.173,7.228V142.6l71.237-41.132c2.586-1.489,5.763-1.489,8.346,0c2.583,1.489,4.173,4.251,4.173,7.228v82.605h0.003
			C232.612,194.284,231.022,197.041,228.439,198.529z"/>
	</g>
</g>
<g>
</g>
<g>
</g>
<g>
</g>
<g>
</g>
<g>
</g>
<g>
</g>
<g>
</g>
<g>
</g>
<g>
</g>
<g>
</g>
<g>
</g>
<g>
</g>
<g>
</g>
<g>
</g>
<g>
</g>
</svg>
