<?xml version="1.0" encoding="iso-8859-1"?>
<!-- Generator: Adobe Illustrator 19.0.0, SVG Export Plug-In . SVG Version: 6.00 Build 0)  -->
<svg version="1.1" id="Layer_1" xmlns="http://www.w3.org/2000/svg" xmlns:xlink="http://www.w3.org/1999/xlink" x="0px" y="0px"
	 viewBox="0 0 300.003 300.003" style="enable-background:new 0 0 300.003 300.003;" xml:space="preserve">
<g>
	<g>
		<path d="M150.001,0c-82.838,0-150,67.159-150,150c0,82.838,67.162,150.003,150,150.003c82.843,0,150-67.165,150-150.003
			C300.001,67.159,232.843,0,150.001,0z M121.224,152.124c0,3.208-0.589,6.274-1.613,9.132l42.974,20.661
			c4.943-5.408,12.037-8.821,19.942-8.821c14.937,0,27.046,12.11,27.046,27.046c0,14.939-12.11,27.049-27.046,27.049
			c-14.939,0-27.049-12.11-27.049-27.049c0-1.432,0.145-2.827,0.358-4.197l-45.736-21.991c-4.471,3.265-9.962,5.218-15.925,5.218
			c-14.937,0-27.046-12.107-27.046-27.046c0-14.939,12.11-27.046,27.046-27.046c5.963,0,11.456,1.95,15.927,5.218l45.739-21.989
			c-0.215-1.372-0.361-2.767-0.361-4.199c0-14.939,12.11-27.049,27.049-27.049c14.937,0,27.046,12.11,27.046,27.049
			c0,14.937-12.11,27.046-27.046,27.046c-7.908,0-14.999-3.413-19.945-8.824l-42.971,20.661
			C120.638,145.85,121.224,148.916,121.224,152.124z"/>
	</g>
</g>
<g>
</g>
<g>
</g>
<g>
</g>
<g>
</g>
<g>
</g>
<g>
</g>
<g>
</g>
<g>
</g>
<g>
</g>
<g>
</g>
<g>
</g>
<g>
</g>
<g>
</g>
<g>
</g>
<g>
</g>
</svg>
