<?xml version="1.0" encoding="iso-8859-1"?>
<!-- Generator: Adobe Illustrator 19.0.0, SVG Export Plug-In . SVG Version: 6.00 Build 0)  -->
<svg version="1.1" id="Layer_1" xmlns="http://www.w3.org/2000/svg" xmlns:xlink="http://www.w3.org/1999/xlink" x="0px" y="0px"
	 viewBox="0 0 300.003 300.003" style="enable-background:new 0 0 300.003 300.003;" xml:space="preserve">
<g>
	<g>
		<path d="M150.005,0C67.164,0,0.001,67.159,0.001,150c0,82.838,67.162,150.003,150.003,150.003S300.002,232.838,300.002,150
			C300.002,67.159,232.844,0,150.005,0z M197.245,100.506l27.358-15.793c3.081-1.779,7.016-0.724,8.795,2.355
			c1.777,3.081,0.724,7.018-2.355,8.795l-27.358,15.795c-3.079,1.779-7.016,0.724-8.795-2.355
			C193.114,106.222,194.167,102.288,197.245,100.506z M165.865,224.624c-1.403,0.685-2.918,1.022-4.425,1.022
			c-2.218,0-4.42-0.731-6.235-2.153L122.04,197.51c-1.535,0.379-3.136,0.607-4.796,0.607H84.01
			c-10.898,0-19.735-8.836-19.735-19.732v-57.56c0-10.896,8.837-19.735,19.735-19.735h33.235c1.932,0,3.792,0.29,5.561,0.809
			l32.397-25.389c3.042-2.384,7.187-2.824,10.66-1.131c3.475,1.691,5.683,5.218,5.683,9.088v131.069h0.002
			C171.547,219.406,169.337,222.933,165.865,224.624z M234.237,213.383c-1.779,3.081-5.714,4.134-8.795,2.355l-27.358-15.793
			c-3.079-1.782-4.132-5.716-2.355-8.798c1.779-3.081,5.716-4.134,8.795-2.355l27.358,15.795
			C234.961,206.362,236.011,210.299,234.237,213.383z M231.133,156.795H199.55c-3.556,0-6.437-2.879-6.437-6.437
			c0-3.556,2.882-6.437,6.437-6.437h31.585c3.556,0,6.437,2.882,6.437,6.437C237.573,153.916,234.688,156.795,231.133,156.795z"/>
	</g>
</g>
<g>
</g>
<g>
</g>
<g>
</g>
<g>
</g>
<g>
</g>
<g>
</g>
<g>
</g>
<g>
</g>
<g>
</g>
<g>
</g>
<g>
</g>
<g>
</g>
<g>
</g>
<g>
</g>
<g>
</g>
</svg>
