<?xml version="1.0" encoding="iso-8859-1"?>
<!-- Generator: Adobe Illustrator 19.0.0, SVG Export Plug-In . SVG Version: 6.00 Build 0)  -->
<svg version="1.1" id="Layer_1" xmlns="http://www.w3.org/2000/svg" xmlns:xlink="http://www.w3.org/1999/xlink" x="0px" y="0px"
	 viewBox="0 0 300.003 300.003" style="enable-background:new 0 0 300.003 300.003;" xml:space="preserve">
<g>
	<g>
		<path d="M150.001,0c-82.838,0-150,67.159-150,150c0,82.838,67.162,150.003,150,150.003c82.843,0,150-67.165,150-150.003
			C300.001,67.159,232.843,0,150.001,0z M95.897,210.883c0,8.782-7.12,15.899-15.899,15.899s-15.896-7.117-15.896-15.899V93.368
			c0-8.782,7.117-15.899,15.896-15.899c8.779,0,15.899,7.117,15.899,15.899V210.883z M142.986,210.883
			c0,8.782-7.117,15.899-15.899,15.899c-8.779,0-15.896-7.117-15.896-15.899v-87.652c0-8.782,7.117-15.899,15.896-15.899
			c8.782,0,15.899,7.117,15.899,15.899V210.883z M188.929,210.883c0,8.782-7.12,15.899-15.899,15.899s-15.899-7.117-15.899-15.899
			V146.2c0-8.782,7.12-15.899,15.899-15.899s15.899,7.117,15.899,15.899V210.883z M234.869,210.883
			c0,8.782-7.117,15.899-15.899,15.899c-8.777,0-15.896-7.117-15.896-15.899v-44.009c0-8.779,7.12-15.899,15.896-15.899
			c8.782,0,15.899,7.12,15.899,15.899V210.883z"/>
	</g>
</g>
<g>
</g>
<g>
</g>
<g>
</g>
<g>
</g>
<g>
</g>
<g>
</g>
<g>
</g>
<g>
</g>
<g>
</g>
<g>
</g>
<g>
</g>
<g>
</g>
<g>
</g>
<g>
</g>
<g>
</g>
</svg>
