<?xml version="1.0" encoding="iso-8859-1"?>
<!-- Generator: Adobe Illustrator 19.0.0, SVG Export Plug-In . SVG Version: 6.00 Build 0)  -->
<svg version="1.1" id="Layer_1" xmlns="http://www.w3.org/2000/svg" xmlns:xlink="http://www.w3.org/1999/xlink" x="0px" y="0px"
	 viewBox="0 0 300.005 300.005" style="enable-background:new 0 0 300.005 300.005;" xml:space="preserve">
<g>
	<g>
		<path d="M150,0C67.159,0,0.002,67.162,0.002,150S67.159,300.005,150,300.005c82.843,0,150.003-67.165,150.003-150.005
			S232.843,0,150,0z M135.499,177.77l-16.809-9.228h-10.019v-0.003l-10.105,35.525H72.181l10.105-35.525h-0.973
			c-16.086,0-29.126-13.038-29.126-29.129c0-16.086,13.041-29.124,29.126-29.124h37.377l16.809-9.228V177.77z M168.163,195.695
			l-17.102-9.386V93.602h-1.982l19.081-10.476c6.995,0,12.665,5.67,12.665,12.665v87.239h0.003
			C180.828,190.025,175.158,195.695,168.163,195.695z M202.404,167.139c4.682-6.481,7.472-14.415,7.472-23
			c0-8.585-2.791-16.519-7.472-23l9.057-9.057c6.935,8.847,11.077,19.974,11.077,32.057c0,12.083-4.145,23.21-11.077,32.057
			L202.404,167.139z M227.581,192.315l-8.982-8.982c8.722-10.701,13.967-24.346,13.967-39.195s-5.242-28.494-13.967-39.195
			l8.982-8.982c11.002,13.023,17.655,29.835,17.655,48.177S238.583,179.295,227.581,192.315z"/>
	</g>
</g>
<g>
</g>
<g>
</g>
<g>
</g>
<g>
</g>
<g>
</g>
<g>
</g>
<g>
</g>
<g>
</g>
<g>
</g>
<g>
</g>
<g>
</g>
<g>
</g>
<g>
</g>
<g>
</g>
<g>
</g>
</svg>
