<?xml version="1.0" encoding="iso-8859-1"?>
<!-- Generator: Adobe Illustrator 19.0.0, SVG Export Plug-In . SVG Version: 6.00 Build 0)  -->
<svg version="1.1" id="Layer_1" xmlns="http://www.w3.org/2000/svg" xmlns:xlink="http://www.w3.org/1999/xlink" x="0px" y="0px"
	 viewBox="0 0 300.005 300.005" style="enable-background:new 0 0 300.005 300.005;" xml:space="preserve">
<g>
	<g>
		<g>
			<path d="M150,0C67.159,0,0.002,67.162,0.002,150S67.159,300.005,150,300.005S300.003,232.841,300.003,150S232.841,0,150,0z
				 M141.573,234.619H73.382c-4.767,0-8.645-3.877-8.645-8.645v-68.191h76.836V234.619z M141.574,142.222h-0.001H64.737V74.03
				c0-4.767,3.877-8.645,8.645-8.645h68.192V142.222z M233.971,225.975c0,4.767-3.88,8.645-8.642,8.645h-68.194v-76.837h76.836
				V225.975z M233.971,142.222h-76.836V65.385h68.194c4.762,0,8.642,3.877,8.642,8.645V142.222z"/>
			<polygon points="94.942,127.311 110.504,127.311 110.504,111.749 126.065,111.749 126.065,96.187 110.504,96.187 110.504,80.626 
				94.942,80.626 94.942,96.187 79.38,96.187 79.38,111.749 94.942,111.749 			"/>
			<polygon points="91.718,217.834 102.723,206.829 113.728,217.834 124.729,206.832 113.724,195.827 124.729,184.822 
				113.728,173.82 102.723,184.825 91.718,173.82 80.716,184.822 91.721,195.827 80.716,206.832 			"/>
			<rect x="173.187" y="96.187" width="46.685" height="15.562"/>
			<rect x="173.187" y="176.336" width="46.685" height="15.562"/>
			<rect x="173.187" y="199.759" width="46.685" height="15.562"/>
		</g>
	</g>
</g>
<g>
</g>
<g>
</g>
<g>
</g>
<g>
</g>
<g>
</g>
<g>
</g>
<g>
</g>
<g>
</g>
<g>
</g>
<g>
</g>
<g>
</g>
<g>
</g>
<g>
</g>
<g>
</g>
<g>
</g>
</svg>
