<?xml version="1.0" encoding="iso-8859-1"?>
<!-- Generator: Adobe Illustrator 19.0.0, SVG Export Plug-In . SVG Version: 6.00 Build 0)  -->
<svg version="1.1" id="Layer_1" xmlns="http://www.w3.org/2000/svg" xmlns:xlink="http://www.w3.org/1999/xlink" x="0px" y="0px"
	 viewBox="0 0 300.005 300.005" style="enable-background:new 0 0 300.005 300.005;" xml:space="preserve">
<g>
	<g>
		<g>
			<rect x="74.463" y="162.486" width="66.602" height="15.562"/>
			<rect x="74.463" y="141.615" width="66.602" height="15.562"/>
			<path d="M150,0C67.159,0,0.002,67.162,0.002,150S67.159,300.005,150,300.005S300.003,232.841,300.003,150S232.841,0,150,0z
				 M230.544,202.29c0.001,8.09-7.5,14.652-16.756,14.652H73.171c-9.254,0-16.76-6.559-16.76-14.649v-70.197
				c0-8.09,7.506-14.649,16.76-14.649h137.491l-16.008,34.327l3.099,36.295h-27.936v15.562h38.012v-13.746l22.715-15.977V202.29z
				 M211.098,153.338l12.299,5.732l-0.584,1.248l-11.14,7.835l-1.159-13.57L211.098,153.338z M229.974,144.965l-12.301-5.731
				l29.189-62.595c1.525-3.278,5.677-4.84,9.023-3.281c3.39,1.58,4.858,5.626,3.278,9.018L229.974,144.965z"/>
		</g>
	</g>
</g>
<g>
</g>
<g>
</g>
<g>
</g>
<g>
</g>
<g>
</g>
<g>
</g>
<g>
</g>
<g>
</g>
<g>
</g>
<g>
</g>
<g>
</g>
<g>
</g>
<g>
</g>
<g>
</g>
<g>
</g>
</svg>
