<?xml version="1.0" encoding="iso-8859-1"?>
<!-- Generator: Adobe Illustrator 19.0.0, SVG Export Plug-In . SVG Version: 6.00 Build 0)  -->
<svg version="1.1" id="Layer_1" xmlns="http://www.w3.org/2000/svg" xmlns:xlink="http://www.w3.org/1999/xlink" x="0px" y="0px"
	 viewBox="0 0 300 300" style="enable-background:new 0 0 300 300;" xml:space="preserve">
<g>
	<g>
		<g>
			<path d="M149.997,0C67.157,0,0,67.159,0,149.997C0,232.838,67.157,300,149.997,300S300,232.838,300,149.997
				C299.997,67.159,232.838,0,149.997,0z M64.221,108.502c0-5.26,5.4-9.539,12.037-9.539H223.74c6.637,0,12.037,4.277,12.037,9.539
				v12.911H64.221V108.502z M235.777,191.501c0,5.26-5.4,9.539-12.038,9.539H76.258c-6.637,0-12.037-4.277-12.037-9.539v-54.526
				h171.556V191.501z"/>
			<rect x="78.351" y="165.562" width="28.53" height="15.562"/>
			<rect x="111.498" y="165.562" width="28.53" height="15.562"/>
		</g>
	</g>
</g>
<g>
</g>
<g>
</g>
<g>
</g>
<g>
</g>
<g>
</g>
<g>
</g>
<g>
</g>
<g>
</g>
<g>
</g>
<g>
</g>
<g>
</g>
<g>
</g>
<g>
</g>
<g>
</g>
<g>
</g>
</svg>
