<?xml version="1.0" encoding="iso-8859-1"?>
<!-- Generator: Adobe Illustrator 19.0.0, SVG Export Plug-In . SVG Version: 6.00 Build 0)  -->
<svg version="1.1" id="Layer_1" xmlns="http://www.w3.org/2000/svg" xmlns:xlink="http://www.w3.org/1999/xlink" x="0px" y="0px"
	 viewBox="0 0 300.005 300.005" style="enable-background:new 0 0 300.005 300.005;" xml:space="preserve">
<g>
	<g>
		<g>
			<path d="M148.854,203.045c-1.556,0-3.071,0.337-4.503,1.004c-5.333,2.487-7.649,8.855-5.161,14.195
				c1.745,3.743,5.548,6.165,9.682,6.165c1.559,0,3.073-0.337,4.505-1.006c2.583-1.206,4.544-3.343,5.519-6.022
				c0.975-2.679,0.846-5.579-0.358-8.165C156.793,205.467,152.99,203.045,148.854,203.045z"/>
			<path d="M150,0C67.159,0,0.002,67.162,0.002,150S67.159,300.005,150,300.005c82.843,0,150.003-67.165,150.003-150.005
				S232.843,0,150,0z M197.19,94.667l27.285,58.51l-64.138,29.907l-27.285-58.515L197.19,94.667z M240.039,179.796l-65.175,30.392
				c0.573,4.168,0.132,8.445-1.349,12.512c-2.397,6.588-7.213,11.845-13.565,14.804c-3.507,1.637-7.234,2.464-11.08,2.464
				c-10.159,0-19.499-5.95-23.789-15.155c-4.967-10.66-2.135-22.99,6.139-30.514L86.306,97.987l-26.206-7.093
				c-4.15-1.123-6.601-5.397-5.478-9.545c1.126-4.15,5.408-6.593,9.545-5.478l33.188,8.984l47.98,102.889
				c1.162-0.158,2.332-0.265,3.517-0.265c7.48,0,14.498,3.242,19.4,8.616l65.214-30.408c3.896-1.816,8.523-0.132,10.338,3.763
				C245.622,173.35,243.936,177.98,240.039,179.796z"/>
		</g>
	</g>
</g>
<g>
</g>
<g>
</g>
<g>
</g>
<g>
</g>
<g>
</g>
<g>
</g>
<g>
</g>
<g>
</g>
<g>
</g>
<g>
</g>
<g>
</g>
<g>
</g>
<g>
</g>
<g>
</g>
<g>
</g>
</svg>
