<?xml version="1.0" encoding="iso-8859-1"?>
<!-- Generator: Adobe Illustrator 19.0.0, SVG Export Plug-In . SVG Version: 6.00 Build 0)  -->
<svg version="1.1" id="Layer_1" xmlns="http://www.w3.org/2000/svg" xmlns:xlink="http://www.w3.org/1999/xlink" x="0px" y="0px"
	 viewBox="0 0 300.005 300.005" style="enable-background:new 0 0 300.005 300.005;" xml:space="preserve">
<g>
	<g>
		<g>
			<path d="M198.856,191.573c-5.89,0-10.678,4.793-10.678,10.681s4.79,10.678,10.678,10.678s10.678-4.79,10.678-10.678
				S204.746,191.573,198.856,191.573z"/>
			<path d="M191.077,120.951h-0.002c0-3.32-2.703-6.022-6.022-6.022H92.746c-3.32,0-6.02,2.703-6.02,6.022v60.777
				c0,3.32,2.703,6.022,6.02,6.022h1.982c4.705-7.068,12.74-11.736,21.849-11.736s17.144,4.671,21.849,11.736h38.583
				c3.307-4.967,8.256-8.751,14.068-10.559V120.951z"/>
			<path d="M116.575,191.573c-5.89,0-10.681,4.793-10.681,10.681s4.79,10.678,10.681,10.678c5.89,0,10.681-4.79,10.681-10.678
				S122.466,191.573,116.575,191.573z"/>
			<path d="M206.846,133.415v0.001v43.848c5.722,1.834,10.592,5.576,13.86,10.483h21.748v-23.68l-20.676-30.652H206.846z"/>
			<path d="M150,0C67.159,0,0.002,67.162,0.002,150S67.159,300.005,150,300.005c82.843,0,150.003-67.165,150.003-150.005
				S232.843,0,150,0z M250.233,203.312h-25.189c-0.56,13.98-12.073,25.184-26.188,25.184s-25.628-11.204-26.188-25.184h-29.905
				c-0.56,13.98-12.076,25.184-26.19,25.184c-14.159,0-25.705-11.28-26.196-25.322c-10.476-1.146-18.695-9.822-19.17-20.484H56.698
				v-15.562h14.459v-9.27H35.232v-15.562h35.932v-9.272H16.057v-15.562H71.47c1.675-10.245,10.564-18.096,21.273-18.096h92.307
				c10.849,0,19.828,8.053,21.338,18.49h19.522c2.586,0,5.006,1.286,6.45,3.429l24.32,36.054c0.866,1.286,1.331,2.801,1.331,4.352
				v33.839C258.014,199.829,254.531,203.312,250.233,203.312z"/>
		</g>
	</g>
</g>
<g>
</g>
<g>
</g>
<g>
</g>
<g>
</g>
<g>
</g>
<g>
</g>
<g>
</g>
<g>
</g>
<g>
</g>
<g>
</g>
<g>
</g>
<g>
</g>
<g>
</g>
<g>
</g>
<g>
</g>
</svg>
