<?xml version="1.0" encoding="iso-8859-1"?>
<!-- Generator: Adobe Illustrator 19.0.0, SVG Export Plug-In . SVG Version: 6.00 Build 0)  -->
<svg version="1.1" id="Layer_1" xmlns="http://www.w3.org/2000/svg" xmlns:xlink="http://www.w3.org/1999/xlink" x="0px" y="0px"
	 viewBox="0 0 300.005 300.005" style="enable-background:new 0 0 300.005 300.005;" xml:space="preserve">
<g>
	<g>
		<g>
			<path d="M116.575,191.573c-5.89,0-10.681,4.793-10.681,10.681s4.79,10.678,10.681,10.678c5.89,0,10.681-4.79,10.681-10.678
				S122.466,191.573,116.575,191.573z"/>
			<path d="M201.447,193.736c-5.89,0-10.678,4.793-10.678,10.681s4.788,10.678,10.678,10.678s10.683-4.79,10.683-10.678
				S207.34,193.736,201.447,193.736z"/>
			<path d="M206.847,133.418v-0.002h0v45.324c5.932,1.245,11.134,4.492,14.854,9.01h20.749v-23.68l-20.679-30.652H206.847z"/>
			<path d="M150,0C67.159,0,0.002,67.162,0.002,150S67.159,300.005,150,300.005S300.003,232.841,300.003,150S232.841,0,150,0z
				 M38.281,97.269c0-19.94,16.218-36.158,36.155-36.158s36.155,16.221,36.155,36.158s-16.218,36.158-36.155,36.158
				S38.281,117.206,38.281,97.269z M250.231,203.312h-22.593c0.016,0.371,0.054,0.734,0.054,1.107
				c0,14.47-11.772,26.24-26.245,26.24c-14.473,0-26.24-11.77-26.24-26.242c0-0.373,0.042-0.737,0.054-1.107h-32.498
				c-0.56,13.98-12.076,25.184-26.19,25.184c-14.159,0-25.705-11.28-26.196-25.322c-10.792-1.183-19.219-10.346-19.219-21.449v-32.9
				c1.089,0.067,2.171,0.166,3.278,0.166c4.238,0,8.339-0.568,12.283-1.535v34.272c0,3.32,2.703,6.022,6.02,6.022h1.982
				c4.705-7.068,12.74-11.736,21.849-11.736s17.144,4.671,21.849,11.736h42.772c2.64-3.198,6.022-5.76,9.879-7.426v-59.371
				c0-3.32-2.705-6.022-6.022-6.022h-62.066c1.784-4.892,2.845-10.113,3.066-15.562h59c10.847,0,19.828,8.053,21.338,18.49h19.522
				c2.583,0,5.006,1.286,6.448,3.429l24.32,36.054c0.866,1.286,1.333,2.801,1.333,4.352v33.839
				C258.012,199.829,254.526,203.312,250.231,203.312z"/>
			<path d="M73.054,107.716c4.298,0,7.781-3.483,7.781-7.781V76.592c0-4.298-3.483-7.781-7.781-7.781
				c-4.298,0-7.781,3.483-7.781,7.781v23.343C65.273,104.233,68.757,107.716,73.054,107.716z"/>
			<circle cx="73.054" cy="118.884" r="6.933"/>
		</g>
	</g>
</g>
<g>
</g>
<g>
</g>
<g>
</g>
<g>
</g>
<g>
</g>
<g>
</g>
<g>
</g>
<g>
</g>
<g>
</g>
<g>
</g>
<g>
</g>
<g>
</g>
<g>
</g>
<g>
</g>
<g>
</g>
</svg>
