<?xml version="1.0" encoding="iso-8859-1"?>
<!-- Generator: Adobe Illustrator 19.0.0, SVG Export Plug-In . SVG Version: 6.00 Build 0)  -->
<svg version="1.1" id="Layer_1" xmlns="http://www.w3.org/2000/svg" xmlns:xlink="http://www.w3.org/1999/xlink" x="0px" y="0px"
	 viewBox="0 0 300 300" style="enable-background:new 0 0 300 300;" xml:space="preserve">
<g>
	<g>
		<g>
			<rect x="96.05" y="116.882" width="86.018" height="15.562"/>
			<rect x="96.05" y="145.708" width="86.018" height="15.559"/>
			<path d="M149.997,0C67.157,0,0,67.159,0,150c0,82.838,67.157,150,149.997,150C232.841,300,300,232.838,300,150
				C300,67.159,232.841,0,149.997,0z M170.609,62.068l25.075,28.027h-25.075V62.068z M159.666,214.335H93.56
				c-9.456,0-17.115-7.659-17.115-17.113V71.027c0-9.454,7.659-17.115,17.115-17.115h61.487v51.743h47.598v63.489
				c-0.163-0.005-0.322-0.026-0.488-0.026c-7.441,0-14.436,1.924-20.534,5.294H96.05v15.562h69.53
				c-3.815,6.378-6.046,13.808-6.046,21.768C159.534,212.618,159.615,213.474,159.666,214.335z M202.158,243.988
				c-1.084,0-2.155-0.054-3.211-0.163c-0.371-0.036-0.724-0.112-1.089-0.158c-0.682-0.091-1.362-0.176-2.031-0.314
				c-0.438-0.086-0.861-0.208-1.294-0.314c-0.576-0.143-1.152-0.272-1.714-0.441c-0.469-0.143-0.918-0.319-1.377-0.482
				c-0.503-0.176-1.012-0.35-1.504-0.552c-0.482-0.197-0.947-0.425-1.419-0.648c-0.444-0.207-0.892-0.41-1.323-0.638
				c-0.488-0.259-0.962-0.542-1.437-0.82c-0.384-0.228-0.773-0.456-1.146-0.7c-0.49-0.319-0.965-0.664-1.439-1.014
				c-0.327-0.239-0.656-0.477-0.975-0.729c-0.488-0.384-0.954-0.791-1.419-1.201c-0.272-0.244-0.547-0.488-0.812-0.739
				c-0.477-0.456-0.934-0.921-1.38-1.403c-0.22-0.239-0.441-0.477-0.656-0.724c-0.456-0.521-0.897-1.058-1.32-1.611
				c-0.171-0.223-0.345-0.451-0.511-0.68c-0.431-0.594-0.843-1.201-1.235-1.823c-0.13-0.207-0.254-0.415-0.379-0.622
				c-0.394-0.664-0.773-1.343-1.123-2.036c-0.088-0.176-0.174-0.366-0.262-0.542c-0.355-0.739-0.685-1.484-0.983-2.249
				c-0.057-0.153-0.109-0.303-0.166-0.456c-0.298-0.807-0.573-1.626-0.809-2.461c-0.034-0.112-0.057-0.223-0.088-0.335
				c-0.236-0.887-0.446-1.779-0.607-2.69c-0.013-0.06-0.018-0.122-0.031-0.182c-0.163-0.962-0.296-1.94-0.376-2.928
				c-0.067-0.856-0.132-1.717-0.132-2.594c0-8.393,3.25-16.023,8.525-21.768c0.537-0.589,1.097-1.154,1.675-1.701
				c0.091-0.086,0.187-0.166,0.278-0.254c0.542-0.501,1.097-0.993,1.675-1.46c5.517-4.412,12.496-7.068,20.093-7.068
				c0.163,0,0.322,0.021,0.488,0.026c8.774,0.132,16.711,3.779,22.456,9.594c0.039,0.041,0.067,0.08,0.106,0.117
				c0.674,0.695,1.325,1.408,1.935,2.158c0.083,0.101,0.156,0.213,0.236,0.314c0.555,0.695,1.092,1.408,1.587,2.148
				c0.124,0.182,0.226,0.379,0.345,0.563c0.436,0.68,0.864,1.362,1.245,2.072c0.153,0.283,0.275,0.584,0.42,0.871
				c0.319,0.633,0.641,1.266,0.918,1.919c0.163,0.389,0.288,0.801,0.438,1.196c0.215,0.578,0.449,1.149,0.633,1.748
				c0.153,0.49,0.259,1.004,0.386,1.504c0.135,0.521,0.29,1.032,0.399,1.567c0.13,0.638,0.205,1.292,0.298,1.945
				c0.057,0.41,0.145,0.814,0.184,1.232c0.112,1.079,0.166,2.173,0.166,3.278C234.404,229.521,219.937,243.988,202.158,243.988z"/>
			<path d="M201.992,206.326c-4.884-0.586-7.363-1.255-7.363-3.307c0-3.26,4.897-3.613,7-3.613c3.141,0,6.601,1.499,7.716,3.341
				l0.599,0.993l7.895-3.652l-0.584-1.19c-2.596-5.304-7.143-6.979-10.73-7.672v-4.746h-9.22v4.713
				c-7.61,1.263-12.112,5.626-12.112,11.827c0,10.312,9.581,11.386,15.917,12.092c5.413,0.638,8.045,1.943,8.045,3.986
				c0,4.075-5.921,4.391-7.734,4.391c-4.049,0-8.084-2.059-9.194-4.689l-0.506-1.198l-8.546,3.623l0.508,1.196
				c2.267,5.309,7.078,8.678,13.624,9.573v5.099h9.22v-5.348c6.339-0.871,12.372-4.993,12.372-12.652
				C218.9,208.403,208.728,207.151,201.992,206.326z"/>
		</g>
	</g>
</g>
<g>
</g>
<g>
</g>
<g>
</g>
<g>
</g>
<g>
</g>
<g>
</g>
<g>
</g>
<g>
</g>
<g>
</g>
<g>
</g>
<g>
</g>
<g>
</g>
<g>
</g>
<g>
</g>
<g>
</g>
</svg>
