<?xml version="1.0" encoding="iso-8859-1"?>
<!-- Generator: Adobe Illustrator 19.0.0, SVG Export Plug-In . SVG Version: 6.00 Build 0)  -->
<svg version="1.1" id="Layer_1" xmlns="http://www.w3.org/2000/svg" xmlns:xlink="http://www.w3.org/1999/xlink" x="0px" y="0px"
	 viewBox="0 0 300.005 300.005" style="enable-background:new 0 0 300.005 300.005;" xml:space="preserve">
<g>
	<g>
		<g>
			<path d="M262.934,150.003l-17.486-25.576l2.355-30.89L219.875,80.13l-13.412-27.933l-30.89,2.355L150,37.068l-25.573,17.484
				l-30.893-2.355L80.127,80.13L52.194,93.537l2.352,30.89l-17.478,25.576l17.481,25.573l-2.352,30.89l27.933,13.409l13.406,27.931
				l30.89-2.352L150,262.937l25.573-17.484l30.89,2.352l13.412-27.931l27.931-13.409l-2.355-30.89L262.934,150.003z
				 M121.322,179.744c0,5.701-4.622,10.323-10.323,10.323c-5.698,0-10.32-4.622-10.32-10.323V135.74
				c0-5.703,4.622-10.325,10.32-10.325c5.701,0,10.323,4.622,10.323,10.325V179.744z M194.135,179.007
				c0,8.061-4.71,10.95-12.776,10.95h-37.12c-8.061,0-14.602-6.539-14.602-14.6v-36.516c0,0-0.721-6.072,5.999-11.778
				c3.802-3.232,9.449-9.392,13.388-16.872c7.838-14.854,12.525-19.177,16.101-18.015c13.212,4.282,6.601,23.877,2.339,32.06h12.066
				c8.069,0,14.605,6.539,14.605,14.605C194.135,138.842,194.135,179.007,194.135,179.007z"/>
			<path d="M150,0C67.159,0,0.002,67.162,0.002,150S67.159,300.005,150,300.005S300.003,232.841,300.003,150S232.841,0,150,0z
				 M230.89,231.541l-15.647,32.594l-36.046-2.749l-29.842,20.401l-29.842-20.401l-36.046,2.749l-15.645-32.594l-32.592-15.642
				l2.747-36.046l-20.409-29.848l20.404-29.842l-2.747-36.046l32.592-15.645L83.46,35.88l36.046,2.747l29.842-20.404l29.842,20.404
				l36.046-2.747l15.647,32.592l32.592,15.645l-2.752,36.046l20.404,29.845l-20.404,29.845l2.752,36.046L230.89,231.541z"/>
		</g>
	</g>
</g>
<g>
</g>
<g>
</g>
<g>
</g>
<g>
</g>
<g>
</g>
<g>
</g>
<g>
</g>
<g>
</g>
<g>
</g>
<g>
</g>
<g>
</g>
<g>
</g>
<g>
</g>
<g>
</g>
<g>
</g>
</svg>
