<?xml version="1.0" encoding="iso-8859-1"?>
<!-- Generator: Adobe Illustrator 19.0.0, SVG Export Plug-In . SVG Version: 6.00 Build 0)  -->
<svg version="1.1" id="Layer_1" xmlns="http://www.w3.org/2000/svg" xmlns:xlink="http://www.w3.org/1999/xlink" x="0px" y="0px"
	 viewBox="0 0 300.005 300.005" style="enable-background:new 0 0 300.005 300.005;" xml:space="preserve">
<g>
	<g>
		<g>
			<path d="M150,0C67.159,0,0.002,67.159,0.002,150c0,82.838,67.157,150.005,149.997,150.005S300.003,232.841,300.003,150
				C300,67.159,232.841,0,150,0z M213.129,195.303c0,2.944-3.359,5.428-7.33,5.428H75.523c-3.973,0-7.33-2.485-7.33-5.428v-63.295
				c0-2.941,3.356-5.428,7.33-5.428h130.275c3.971,0,7.33,2.487,7.33,5.428V195.303z M239.065,169.361L239.065,169.361
				c-0.001,2.944-3.36,5.431-7.331,5.431h-3.045v-42.785c0-11.573-10.268-20.99-22.891-20.99H94.13v-4.949
				c0-2.941,3.356-5.428,7.33-5.428h130.275c3.971,0,7.33,2.487,7.33,5.428V169.361z"/>
			<path d="M139.345,158.206c-6.069-0.726-8.956-1.538-8.956-4.168c0-4.085,5.981-4.526,8.554-4.526
				c3.802,0,8.004,1.831,9.366,4.082l0.599,0.993l8.948-4.142l-0.584-1.19c-3.081-6.3-8.525-8.23-12.758-9.018v-5.592h-10.463v5.561
				c-9.028,1.434-14.376,6.544-14.376,13.832c0,12.029,11.246,13.285,18.682,14.115c6.57,0.778,9.762,2.404,9.762,4.972
				c0,5.065-7.213,5.457-9.425,5.457c-4.977,0-9.765-2.456-11.137-5.714l-0.506-1.198l-9.703,4.113l0.511,1.196
				c2.679,6.277,8.406,10.24,16.192,11.249v6.022h10.463v-6.323c7.496-0.954,14.688-5.773,14.688-14.804
				C159.205,160.649,147.255,159.179,139.345,158.206z"/>
		</g>
	</g>
</g>
<g>
</g>
<g>
</g>
<g>
</g>
<g>
</g>
<g>
</g>
<g>
</g>
<g>
</g>
<g>
</g>
<g>
</g>
<g>
</g>
<g>
</g>
<g>
</g>
<g>
</g>
<g>
</g>
<g>
</g>
</svg>
