<?xml version="1.0" encoding="iso-8859-1"?>
<!-- Generator: Adobe Illustrator 19.0.0, SVG Export Plug-In . SVG Version: 6.00 Build 0)  -->
<svg version="1.1" id="Layer_1" xmlns="http://www.w3.org/2000/svg" xmlns:xlink="http://www.w3.org/1999/xlink" x="0px" y="0px"
	 viewBox="0 0 300.005 300.005" style="enable-background:new 0 0 300.005 300.005;" xml:space="preserve">
<g>
	<g>
		<g>
			<path d="M150,0C67.159,0,0.002,67.162,0.002,150S67.159,300.005,150,300.005S300.003,232.841,300.003,150S232.841,0,150,0z
				 M229.268,226.076c-2.563,2.565-5.921,3.846-9.28,3.846s-6.723-1.281-9.285-3.846l-36.9-36.9
				c-10.634,7.413-23.553,11.77-37.499,11.77c-36.254,0-65.642-29.388-65.642-65.642c0-36.254,29.388-65.642,65.642-65.642
				c36.254,0,65.65,29.388,65.65,65.642c0,12.81-3.688,24.756-10.035,34.858l37.348,37.346
				C234.401,212.636,234.401,220.949,229.268,226.076z"/>
			<path d="M136.306,91.083c-24.419,0-44.216,19.8-44.216,44.221c0,24.421,19.797,44.219,44.216,44.219s44.221-19.797,44.221-44.219
				S160.725,91.083,136.306,91.083z M141.283,158.053v6.121h-10.206v-5.833c-7.532-0.988-13.069-4.829-15.663-10.904l-0.511-1.196
				l9.464-4.007l0.506,1.196c1.32,3.133,5.934,5.496,10.732,5.496c2.129,0,9.075-0.379,9.075-5.231c0-2.459-3.076-4.018-9.405-4.767
				c-7.205-0.807-18.106-2.028-18.106-13.697c0-7.062,5.174-12.016,13.907-13.414v-5.384h10.206v5.416
				c4.095,0.768,9.353,2.646,12.335,8.738l0.584,1.188l-8.73,4.046l-0.599-0.993c-1.31-2.168-5.358-3.932-9.023-3.932
				c-2.474,0-8.23,0.423-8.23,4.337c0,2.503,2.905,3.307,8.626,3.986c7.667,0.947,19.245,2.378,19.245,14.48
				C155.488,152.441,148.536,157.112,141.283,158.053z"/>
		</g>
	</g>
</g>
<g>
</g>
<g>
</g>
<g>
</g>
<g>
</g>
<g>
</g>
<g>
</g>
<g>
</g>
<g>
</g>
<g>
</g>
<g>
</g>
<g>
</g>
<g>
</g>
<g>
</g>
<g>
</g>
<g>
</g>
</svg>
