<?xml version="1.0" encoding="iso-8859-1"?>
<!-- Generator: Adobe Illustrator 19.0.0, SVG Export Plug-In . SVG Version: 6.00 Build 0)  -->
<svg version="1.1" id="Layer_1" xmlns="http://www.w3.org/2000/svg" xmlns:xlink="http://www.w3.org/1999/xlink" x="0px" y="0px"
	 viewBox="0 0 300.005 300.005" style="enable-background:new 0 0 300.005 300.005;" xml:space="preserve">
<g>
	<g>
		<g>
			<path d="M248.068,203.507c0.843-5.486,0.703-14.104-2.469-20.376c-5.353-10.6-14.939-17.45-24.419-17.45
				c-2.703,0-5.301,0.573-7.724,1.701l-16.049,7.371c-2.588,1.188-5.646,0.067-6.86-2.505l-13.456-28.584
				c-1.751-3.758-5.719-5.932-8.598-4.593c-1.717,0.799-2.404,2.482-2.661,3.413c-0.519,1.888-0.283,4.113,0.646,6.108
				l21.888,46.937c0.283,0.607,0.438,1.242,0.48,1.873c0.176,1.541-0.342,3.112-1.473,4.254c-1.53,1.541-3.859,1.966-5.843,1.058
				l-9.529-4.37c-0.711-0.327-1.421-0.493-2.106-0.493c-1.854,0-3.299,1.227-3.867,3.284c-0.957,3.47,1.079,7.835,4.357,9.334
				l27.749,12.706c0.233,0.106,0.456,0.228,0.669,0.368c0.405,0.265,9.062,6.007,16.016,19.647l38.264-17.484
				C250.366,218.646,247.313,208.466,248.068,203.507z"/>
			<rect x="131.492" y="214.952" width="24.357" height="15.562"/>
			<path d="M173.353,187.883l-14.459-31.004c-2.866,1.675-6.178,2.716-9.537,3.107v7.822h-12.372v-7.446
				c-9.708-1.185-16.84-6.066-20.155-13.832l-0.508-1.196l11.479-4.86l0.506,1.196c1.751,4.16,7.828,7.296,14.13,7.296
				c2.822,0,12.029-0.511,12.029-7.096c0-3.426-3.945-5.491-12.411-6.492c-9.13-1.022-22.941-2.563-22.941-17.229
				c0-8.956,6.653-15.222,17.87-16.923v-6.863h12.372v6.896c5.226,0.941,12.063,3.26,15.886,11.085l0.584,1.188l-10.569,4.889
				l-0.599-0.993c-1.743-2.879-7.086-5.224-11.907-5.224c-3.294,0-10.95,0.578-10.95,5.942c0,3.826,4.946,4.718,11.409,5.491
				c6.658,0.817,14.893,1.847,19.888,6.58c0.335-0.189,0.669-0.384,1.019-0.547c1.961-0.916,4.069-1.38,6.264-1.38
				c4.251,0,8.349,1.756,11.573,4.741v-65.82h-78.156v136.025h51.616c-0.023-1.626,0.174-3.263,0.615-4.863
				c1.797-6.52,7.371-10.898,13.868-10.898C171.057,187.475,172.212,187.613,173.353,187.883z"/>
			<path d="M150,0C67.159,0,0.002,67.162,0.002,150S67.159,300.005,150,300.005c82.843,0,150.003-67.165,150.003-150.005
				S232.843,0,150,0z M261.959,233.053l-47.52,21.714c-0.685,0.311-1.419,0.469-2.155,0.469c-0.641,0-1.281-0.119-1.891-0.358
				c-1.307-0.511-2.352-1.533-2.894-2.83c-3.512-8.403-7.944-13.827-10.955-16.843c-4.064,5.06-10.26,8.333-17.255,8.333h-71.234
				c-12.26,0-22.201-9.941-22.201-22.201V71.475c0-12.26,9.941-22.201,22.201-22.201h71.229c12.26,0,22.204,9.941,22.204,22.201
				v89.989l7.612-3.496c3.779-1.764,7.851-2.661,12.081-2.661c13.357,0,26.577,9.085,33.678,23.146
				c4.272,8.45,4.593,19.291,3.465,26.624c-0.329,2.511,2.809,13.84,6.181,21.071c0.586,1.25,0.643,2.687,0.166,3.984
				C264.192,231.427,263.217,232.48,261.959,233.053z"/>
		</g>
	</g>
</g>
<g>
</g>
<g>
</g>
<g>
</g>
<g>
</g>
<g>
</g>
<g>
</g>
<g>
</g>
<g>
</g>
<g>
</g>
<g>
</g>
<g>
</g>
<g>
</g>
<g>
</g>
<g>
</g>
<g>
</g>
</svg>
