<?xml version="1.0" encoding="iso-8859-1"?>
<!-- Generator: Adobe Illustrator 19.0.0, SVG Export Plug-In . SVG Version: 6.00 Build 0)  -->
<svg version="1.1" id="Layer_1" xmlns="http://www.w3.org/2000/svg" xmlns:xlink="http://www.w3.org/1999/xlink" x="0px" y="0px"
	 viewBox="0 0 300.005 300.005" style="enable-background:new 0 0 300.005 300.005;" xml:space="preserve">
<g>
	<g>
		<g>
			<path d="M150,0C67.159,0,0.002,67.162,0.002,150S67.159,300.005,150,300.005c82.843,0,150.003-67.165,150.003-150.005
				S232.843,0,150,0z M105.755,78.641h36.466v23.81H82.617L105.755,78.641z M217.169,226.868H82.838v-0.001V118.013h134.332V226.868
				z M157.786,102.451v-23.81h35.777l23.656,23.81H157.786z"/>
			<path d="M144.119,205.628c0,0.003,0.003,0.005,0.005,0.008c1.52,1.52,3.512,2.28,5.504,2.28s3.984-0.76,5.504-2.28l24.821-24.818
				c3.04-3.037,3.04-7.962,0-11.002c-3.036-3.04-7.964-3.04-11.004-0.001l-11.539,11.536V144.74c0-4.298-3.486-7.781-7.781-7.781
				c-4.295,0-7.781,3.483-7.781,7.781v36.614l-11.542-11.539c-3.04-3.04-7.965-3.04-11.005,0c-3.04,3.04-3.037,7.965,0,11.002
				L144.119,205.628z"/>
		</g>
	</g>
</g>
<g>
</g>
<g>
</g>
<g>
</g>
<g>
</g>
<g>
</g>
<g>
</g>
<g>
</g>
<g>
</g>
<g>
</g>
<g>
</g>
<g>
</g>
<g>
</g>
<g>
</g>
<g>
</g>
<g>
</g>
</svg>
