<?xml version="1.0" encoding="iso-8859-1"?>
<!-- Generator: Adobe Illustrator 19.0.0, SVG Export Plug-In . SVG Version: 6.00 Build 0)  -->
<svg version="1.1" id="Layer_1" xmlns="http://www.w3.org/2000/svg" xmlns:xlink="http://www.w3.org/1999/xlink" x="0px" y="0px"
	 viewBox="0 0 300.005 300.005" style="enable-background:new 0 0 300.005 300.005;" xml:space="preserve">
<g>
	<g>
		<g>
			<path d="M150,0C67.159,0,0.002,67.162,0.002,150S67.159,300.005,150,300.005S300.003,232.841,300.003,150S232.841,0,150,0z
				 M105.106,78.641h36.466v23.81H81.968L105.106,78.641z M216.518,226.868H82.187V118.013h134.332V226.868z M157.135,102.451
				v-23.81h35.776l23.657,23.81H157.135z"/>
			<path d="M124.528,177.342c1.992,0,3.984-0.76,5.501-2.28l11.542-11.539v36.614c0,4.298,3.483,7.781,7.781,7.781
				c4.295,0,7.781-3.483,7.781-7.781v-36.614l11.544,11.542c1.52,1.517,3.512,2.277,5.501,2.277s3.981-0.76,5.501-2.28
				c3.04-3.04,3.04-7.965,0-11.005l-24.821-24.808c0-0.003,0-0.005-0.005-0.008c-0.303-0.303-0.638-0.552-0.973-0.796
				c-1.351-0.973-2.933-1.484-4.528-1.484c-1.992,0-3.984,0.76-5.501,2.277l-24.824,24.821c-3.04,3.037-3.04,7.962,0,11.002
				C120.547,176.582,122.536,177.342,124.528,177.342z"/>
		</g>
	</g>
</g>
<g>
</g>
<g>
</g>
<g>
</g>
<g>
</g>
<g>
</g>
<g>
</g>
<g>
</g>
<g>
</g>
<g>
</g>
<g>
</g>
<g>
</g>
<g>
</g>
<g>
</g>
<g>
</g>
<g>
</g>
</svg>
