<?xml version="1.0" encoding="iso-8859-1"?>
<!-- Generator: Adobe Illustrator 19.0.0, SVG Export Plug-In . SVG Version: 6.00 Build 0)  -->
<svg version="1.1" id="Layer_1" xmlns="http://www.w3.org/2000/svg" xmlns:xlink="http://www.w3.org/1999/xlink" x="0px" y="0px"
	 viewBox="0 0 300.005 300.005" style="enable-background:new 0 0 300.005 300.005;" xml:space="preserve">
<g>
	<g>
		<g>
			<circle cx="185.974" cy="132.664" r="8.642"/>
			<rect x="123.419" y="94.979" width="36.3" height="15.562"/>
			<path d="M150,0C67.159,0,0.002,67.162,0.002,150S67.159,300.005,150,300.005S300.003,232.841,300.003,150S232.841,0,150,0z
				 M230.387,174.466h-9.163c-4.23,11.415-11.433,21.504-20.967,29.417l6.863,6.863c6.105,6.105,6.105,16,0,22.1
				c-6.105,6.105-16.003,6.105-22.106,0l-13.925-13.925c-7.436,2.046-15.435,3.154-23.882,3.154c-6.767,0-13.243-0.721-19.385-2.057
				l-12.831,12.828c-6.105,6.105-16,6.105-22.103,0c-6.105-6.103-6.105-15.998,0-22.1l4.404-4.404
				C79.619,193.218,68.9,173.076,68.9,150.475c0-9.947,2.077-19.419,5.906-28.029c-18.01-1.245-25.259-13.622-26.572-20.342
				c-0.822-4.217,1.93-8.305,6.147-9.127c4.16-0.82,8.209,1.867,9.096,6.002c0.353,1.403,2.643,8.027,14.301,8.027
				c1.935,0,3.683,0.731,5.042,1.901c13.751-18.176,36.7-30.039,64.387-30.039c4.988,0,9.799,0.42,14.449,1.157l40.048-15.3
				l-8.02,27.467c12.807,8.44,22.401,20.37,27.552,34.288h9.148c6.873,0,12.447,5.571,12.447,12.447v23.094h0.003
				C242.832,168.893,237.262,174.466,230.387,174.466z"/>
		</g>
	</g>
</g>
<g>
</g>
<g>
</g>
<g>
</g>
<g>
</g>
<g>
</g>
<g>
</g>
<g>
</g>
<g>
</g>
<g>
</g>
<g>
</g>
<g>
</g>
<g>
</g>
<g>
</g>
<g>
</g>
<g>
</g>
</svg>
