<?xml version="1.0" encoding="iso-8859-1"?>
<!-- Generator: Adobe Illustrator 19.0.0, SVG Export Plug-In . SVG Version: 6.00 Build 0)  -->
<svg version="1.1" id="Layer_1" xmlns="http://www.w3.org/2000/svg" xmlns:xlink="http://www.w3.org/1999/xlink" x="0px" y="0px"
	 viewBox="0 0 300.005 300.005" style="enable-background:new 0 0 300.005 300.005;" xml:space="preserve">
<g>
	<g>
		<g>
			<path d="M202.396,179.754c5.867-8.071,7.983-19.756-0.638-28.38c-3.826-3.828-8.095-5.768-12.68-5.768
				c-7.415,0-14.312,4.899-21.317,10.364c-2.897,2.282-6.868,5.41-9.423,5.41c-0.7,0-1.26-0.254-1.829-0.82
				c-0.812-0.809-1.631-2.044-0.825-4.469c0.659-1.997,2.259-4.3,4.63-6.668c2.887-2.889,7.213-4.91,10.522-4.91
				c0.506,0,0.967,0.052,1.367,0.15l2.259,0.555l5.096-13.917l-2.503-0.859c-7.037-2.417-13.627-1.437-20.733,3.239l-5.39-5.392
				l-11.101,11.106l5.345,5.345c-6.902,9.941-6.959,20.199-0.003,27.155c3.714,3.714,7.812,5.597,12.177,5.594h0.005
				c7.042,0,13.718-4.866,19.94-9.84c4.624-3.644,8.17-5.493,10.538-5.493c0.921,0,1.611,0.278,2.238,0.905
				c0.913,0.913,2.026,2.467,1.159,5.426c-0.674,2.285-2.417,4.918-4.91,7.41c-4.3,4.3-11.007,6.549-14.978,4.933l-2.407-0.98
				l-5.937,14.654l2.417,0.967c2.944,1.18,5.994,1.779,9.078,1.779c5.799,0,11.666-2.106,17.082-6.108l5.776,5.768l11.098-11.101
				L202.396,179.754z"/>
			<path d="M131.396,79.894c-5.54-5.543-12.909-8.593-20.744-8.593c-7.835,0-15.201,3.053-20.744,8.593
				c-11.435,11.44-11.435,30.05,0,41.488c5.54,5.54,12.909,8.59,20.744,8.59c7.835,0,15.201-3.05,20.744-8.593
				C142.828,109.941,142.828,91.332,131.396,79.894z M120.39,110.375c-2.601,2.601-6.061,4.033-9.739,4.033
				c-3.678,0-7.138-1.432-9.739-4.033c-5.369-5.369-5.369-14.109,0-19.481c2.601-2.601,6.061-4.036,9.739-4.036
				c3.678,0,7.138,1.434,9.739,4.033C125.76,96.268,125.76,105.006,120.39,110.375z"/>
			<path d="M150,0C67.159,0,0.002,67.162,0.002,150S67.159,300.005,150,300.005S300.003,232.841,300.003,150S232.841,0,150,0z
				 M174.148,261.031L65.117,152.005L50.82,91.387l49.99-49.995l61.212,13.713l109.023,109.023L174.148,261.031z"/>
		</g>
	</g>
</g>
<g>
</g>
<g>
</g>
<g>
</g>
<g>
</g>
<g>
</g>
<g>
</g>
<g>
</g>
<g>
</g>
<g>
</g>
<g>
</g>
<g>
</g>
<g>
</g>
<g>
</g>
<g>
</g>
<g>
</g>
</svg>
