<?xml version="1.0" encoding="iso-8859-1"?>
<!-- Generator: Adobe Illustrator 19.0.0, SVG Export Plug-In . SVG Version: 6.00 Build 0)  -->
<svg version="1.1" id="Layer_1" xmlns="http://www.w3.org/2000/svg" xmlns:xlink="http://www.w3.org/1999/xlink" x="0px" y="0px"
	 viewBox="0 0 300.005 300.005" style="enable-background:new 0 0 300.005 300.005;" xml:space="preserve">
<g>
	<g>
		<g>
			
				<rect x="137.761" y="157.136" transform="matrix(-0.7071 -0.7071 0.7071 -0.7071 182.0216 405.2267)" width="74.35" height="15.559"/>
			
				<rect x="115.905" y="178.986" transform="matrix(-0.7071 -0.7071 0.7071 -0.7071 129.2615 427.0731)" width="74.35" height="15.559"/>
			<path d="M150,0C67.159,0,0.002,67.162,0.002,150S67.159,300.005,150,300.005c82.843,0,150.003-67.165,150.003-150.005
				S232.843,0,150,0z M174.147,261.033L65.117,152.005L50.822,91.387l49.99-49.992l61.207,13.71L271.047,164.13L174.147,261.033z"/>
			<path d="M131.396,79.897c-5.54-5.543-12.909-8.593-20.744-8.593c-7.835,0-15.201,3.053-20.744,8.593
				c-11.435,11.44-11.435,30.05,0,41.488c5.543,5.54,12.909,8.59,20.744,8.59c7.835,0,15.201-3.05,20.744-8.593
				C142.828,109.947,142.831,91.335,131.396,79.897z M120.393,110.377c-2.601,2.601-6.061,4.033-9.739,4.033
				c-3.678,0-7.138-1.432-9.739-4.033c-5.369-5.369-5.369-14.109,0-19.481c2.601-2.601,6.061-4.036,9.739-4.036
				c3.678,0,7.138,1.434,9.736,4.033C125.76,96.27,125.76,105.008,120.393,110.377z"/>
			
				<rect x="189.001" y="105.889" transform="matrix(0.7071 -0.7071 0.7071 0.7071 -43.5247 181.0467)" width="15.559" height="74.347"/>
		</g>
	</g>
</g>
<g>
</g>
<g>
</g>
<g>
</g>
<g>
</g>
<g>
</g>
<g>
</g>
<g>
</g>
<g>
</g>
<g>
</g>
<g>
</g>
<g>
</g>
<g>
</g>
<g>
</g>
<g>
</g>
<g>
</g>
</svg>
