<?xml version="1.0" encoding="iso-8859-1"?>
<!-- Generator: Adobe Illustrator 19.0.0, SVG Export Plug-In . SVG Version: 6.00 Build 0)  -->
<svg version="1.1" id="Layer_1" xmlns="http://www.w3.org/2000/svg" xmlns:xlink="http://www.w3.org/1999/xlink" x="0px" y="0px"
	 viewBox="0 0 300.005 300.005" style="enable-background:new 0 0 300.005 300.005;" xml:space="preserve">
<g>
	<g>
		<g>
			<path d="M107.14,217.691c-4.264,0-7.732,3.47-7.732,7.732c0,4.261,3.468,7.732,7.732,7.732c4.264,0,7.732-3.47,7.732-7.732
				C114.872,221.161,111.403,217.691,107.14,217.691z"/>
			<path d="M222.117,233.157c4.267,0,7.734-3.47,7.734-7.732c0-4.261-3.47-7.732-7.734-7.732c-4.264,0-7.729,3.47-7.729,7.732
				C214.389,229.687,217.857,233.157,222.117,233.157z"/>
			<path d="M150,0C67.159,0,0.002,67.162,0.002,150S67.159,300.005,150,300.005c82.843,0,150.003-67.165,150.003-150.005
				S232.843,0,150,0z M128.799,108.811l30.327-30.322c0.231-0.231,0.49-0.41,0.742-0.604c1.398-1.092,3.071-1.673,4.759-1.673
				c1.175,0,2.337,0.298,3.416,0.827c0.747,0.368,1.46,0.827,2.085,1.45l30.327,30.322c3.04,3.037,3.04,7.965,0,11.005
				c-1.517,1.52-3.512,2.28-5.501,2.28s-3.981-0.76-5.501-2.277l-17.045-17.045v48.895c0,4.298-3.483,7.781-7.781,7.781
				c-4.298,0-7.781-3.483-7.781-7.781v-48.895l-17.045,17.043c-1.517,1.517-3.512,2.277-5.501,2.277c-1.992,0-3.984-0.76-5.504-2.28
				C125.76,116.776,125.76,111.848,128.799,108.811z M119.234,202.129h102.884c12.846,0,23.296,10.45,23.296,23.293
				c0,12.844-10.45,23.293-23.296,23.293c-12.844,0-23.291-10.45-23.291-23.293c0-2.713,0.49-5.309,1.349-7.732h-71.089
				c0.858,2.425,1.349,5.021,1.349,7.732c0,12.844-10.45,23.293-23.293,23.293s-23.293-10.45-23.293-23.293
				c0-11.531,8.434-21.11,19.452-22.951l-2.264-9.251h-0.392l-16.721-92.344l0.215-0.039L78.312,66.85H55.695V51.289h35.74
				l11.918,69.559l10.284,56.808h107.617l14.177-61.754l15.168,3.483l-16.947,73.833h-116.6L119.234,202.129z"/>
		</g>
	</g>
</g>
<g>
</g>
<g>
</g>
<g>
</g>
<g>
</g>
<g>
</g>
<g>
</g>
<g>
</g>
<g>
</g>
<g>
</g>
<g>
</g>
<g>
</g>
<g>
</g>
<g>
</g>
<g>
</g>
<g>
</g>
</svg>
