<?xml version="1.0" encoding="iso-8859-1"?>
<!-- Generator: Adobe Illustrator 19.0.0, SVG Export Plug-In . SVG Version: 6.00 Build 0)  -->
<svg version="1.1" id="Layer_1" xmlns="http://www.w3.org/2000/svg" xmlns:xlink="http://www.w3.org/1999/xlink" x="0px" y="0px"
	 viewBox="0 0 300.005 300.005" style="enable-background:new 0 0 300.005 300.005;" xml:space="preserve">
<g>
	<g>
		<g>
			<path d="M107.138,217.691c-4.264,0-7.732,3.47-7.732,7.732c0,4.261,3.468,7.732,7.732,7.732s7.732-3.47,7.732-7.732
				C114.869,221.161,111.401,217.691,107.138,217.691z"/>
			<path d="M150,0C67.159,0,0.002,67.162,0.002,150S67.159,300.005,150,300.005S300.003,232.841,300.003,150S232.841,0,150,0z
				 M128.797,115.834c3.037-3.037,7.962-3.04,11.005,0l17.048,17.043V83.982c0-4.298,3.481-7.781,7.781-7.781
				c4.295,0,7.781,3.483,7.781,7.781v48.895l17.045-17.043c3.04-3.037,7.968-3.037,11.002,0c3.04,3.037,3.04,7.965,0,11.005
				l-30.327,30.322c-1.52,1.52-3.512,2.28-5.501,2.28s-3.986-0.76-5.501-2.28l-30.33-30.322
				C125.76,123.799,125.76,118.874,128.797,115.834z M119.231,202.129h102.889c12.841,0,23.291,10.45,23.291,23.293
				c0,12.844-10.45,23.293-23.291,23.293c-12.846,0-23.296-10.45-23.296-23.293c0-2.713,0.49-5.309,1.349-7.732h-71.089
				c0.858,2.425,1.349,5.021,1.349,7.732c0,12.844-10.45,23.293-23.293,23.293s-23.293-10.45-23.293-23.293
				c0-11.531,8.434-21.11,19.452-22.951l-2.264-9.251h-0.394l-16.721-92.344l0.215-0.039L78.31,66.85H55.693V51.289h35.74
				l11.918,69.559l10.284,56.808H221.25l14.179-61.754l15.168,3.483l-16.949,73.833H117.052L119.231,202.129z"/>
			<path d="M222.121,233.157c4.261,0,7.729-3.47,7.729-7.732c0-4.261-3.47-7.732-7.729-7.732c-4.267,0-7.734,3.47-7.734,7.732
				C214.387,229.687,217.857,233.157,222.121,233.157z"/>
		</g>
	</g>
</g>
<g>
</g>
<g>
</g>
<g>
</g>
<g>
</g>
<g>
</g>
<g>
</g>
<g>
</g>
<g>
</g>
<g>
</g>
<g>
</g>
<g>
</g>
<g>
</g>
<g>
</g>
<g>
</g>
<g>
</g>
</svg>
