<?xml version="1.0" encoding="iso-8859-1"?>
<!-- Generator: Adobe Illustrator 19.0.0, SVG Export Plug-In . SVG Version: 6.00 Build 0)  -->
<svg version="1.1" id="Layer_1" xmlns="http://www.w3.org/2000/svg" xmlns:xlink="http://www.w3.org/1999/xlink" x="0px" y="0px"
	 viewBox="0 0 300.005 300.005" style="enable-background:new 0 0 300.005 300.005;" xml:space="preserve">
<g>
	<g>
		<g>
			<circle cx="97.035" cy="229.666" r="6.406"/>
			<circle cx="202.179" cy="229.666" r="6.406"/>
			<path d="M150,0C67.159,0,0.002,67.162,0.002,150S67.159,300.005,150,300.005S300.003,232.841,300.003,150S232.841,0,150,0z
				 M202.179,251.634c-12.112,0-21.965-9.856-21.965-21.971c0-2.225,0.34-4.378,0.957-6.404h-63.126
				c0.62,2.026,0.957,4.176,0.957,6.404c0,12.115-9.853,21.971-21.968,21.971s-21.968-9.856-21.968-21.971
				c0-10.821,7.872-19.815,18.187-21.615L68.862,85.201l-18.819,0.124L49.94,69.763l31.64-0.21l7.656,37.883l94.413,11.319
				c-0.052,0.796-0.122,1.585-0.122,2.394c0,21.413,16.763,38.941,37.851,40.261l-8.318,31.692H106.354l2.651,14.594h93.171
				c12.112,0,21.971,9.853,21.971,21.965C224.147,241.778,214.291,251.634,202.179,251.634z M223.921,151.167
				c-16.555,0-30.019-13.466-30.019-30.016s13.464-30.016,30.019-30.016c16.55,0,30.013,13.466,30.013,30.016
				S240.468,151.167,223.921,151.167z"/>
			<polygon points="231.702,103.906 216.14,103.906 216.14,113.803 206.24,113.803 206.24,129.365 216.14,129.365 216.14,139.257 
				231.702,139.257 231.702,129.365 241.594,129.365 241.594,113.803 231.702,113.803 			"/>
		</g>
	</g>
</g>
<g>
</g>
<g>
</g>
<g>
</g>
<g>
</g>
<g>
</g>
<g>
</g>
<g>
</g>
<g>
</g>
<g>
</g>
<g>
</g>
<g>
</g>
<g>
</g>
<g>
</g>
<g>
</g>
<g>
</g>
</svg>
