<?xml version="1.0" encoding="iso-8859-1"?>
<!-- Generator: Adobe Illustrator 19.0.0, SVG Export Plug-In . SVG Version: 6.00 Build 0)  -->
<svg version="1.1" id="Layer_1" xmlns="http://www.w3.org/2000/svg" xmlns:xlink="http://www.w3.org/1999/xlink" x="0px" y="0px"
	 viewBox="0 0 300.005 300.005" style="enable-background:new 0 0 300.005 300.005;" xml:space="preserve">
<g>
	<g>
		<g>
			<path d="M150,0C67.159,0,0.002,67.162,0.002,150S67.159,300.005,150,300.005c82.843,0,150.003-67.165,150.003-150.005
				S232.843,0,150,0z M232.17,222.642h-0.006c0,8.139-6.601,14.74-14.742,14.74h-9.114v-63.759h-43.054v63.757H81.085
				c-8.139,0-14.74-6.601-14.74-14.74v-76.471c7.374-0.576,13.985-3.911,18.757-9.008c5.257,5.615,12.732,9.127,21.014,9.127
				c8.282,0,15.756-3.512,21.014-9.127c5.257,5.615,12.735,9.127,21.016,9.127s15.756-3.512,21.014-9.127
				c5.257,5.615,12.732,9.127,21.014,9.127c8.282,0,15.754-3.512,21.014-9.127c5.25,5.607,12.714,9.117,20.982,9.127V222.642z
				 M232.195,130.727c-7.296,0-13.233-5.937-13.233-13.233c0-4.298-3.483-7.781-7.781-7.781c-4.298,0-7.781,3.483-7.781,7.781
				c0,7.296-5.934,13.233-13.233,13.233s-13.233-5.937-13.233-13.233c0-4.298-3.483-7.781-7.781-7.781
				c-4.298,0-7.781,3.483-7.781,7.781c0,7.296-5.937,13.233-13.233,13.233s-13.235-5.937-13.235-13.233
				c0-4.298-3.483-7.781-7.781-7.781c-4.298,0-7.781,3.483-7.781,7.781c0,7.296-5.937,13.233-13.233,13.233
				c-7.296,0-13.233-5.937-13.233-13.233c0-4.298-3.483-7.781-7.781-7.781c-4.298,0-7.781,3.483-7.781,7.781
				c0,7.296-5.937,13.233-13.235,13.233c-6.515,0-11.944-4.733-13.033-10.94l40.168-54.438h116.521l37.587,53.766
				C244.53,125.651,238.943,130.727,232.195,130.727z"/>
			<rect x="89.039" y="174.157" width="47.619" height="33.263"/>
		</g>
	</g>
</g>
<g>
</g>
<g>
</g>
<g>
</g>
<g>
</g>
<g>
</g>
<g>
</g>
<g>
</g>
<g>
</g>
<g>
</g>
<g>
</g>
<g>
</g>
<g>
</g>
<g>
</g>
<g>
</g>
<g>
</g>
</svg>
