<?xml version="1.0" encoding="iso-8859-1"?>
<!-- Generator: Adobe Illustrator 19.0.0, SVG Export Plug-In . SVG Version: 6.00 Build 0)  -->
<svg version="1.1" id="Layer_1" xmlns="http://www.w3.org/2000/svg" xmlns:xlink="http://www.w3.org/1999/xlink" x="0px" y="0px"
	 viewBox="0 0 300.005 300.005" style="enable-background:new 0 0 300.005 300.005;" xml:space="preserve">
<g>
	<g>
		<g>
			<circle cx="97.035" cy="229.663" r="6.406"/>
			<circle cx="202.181" cy="229.663" r="6.406"/>
			<path d="M150,0C67.159,0,0.002,67.162,0.002,150S67.159,300.005,150,300.005c82.843,0,150.003-67.165,150.003-150.005
				S232.843,0,150,0z M109.007,207.695h93.174c12.112,0,21.965,9.856,21.965,21.968s-9.853,21.968-21.965,21.968
				c-12.115,0-21.971-9.856-21.971-21.968c0-2.228,0.34-4.378,0.957-6.406h-63.124c0.62,2.028,0.96,4.176,0.96,6.406
				c0,12.112-9.853,21.968-21.968,21.968s-21.968-9.856-21.968-21.968c0-10.821,7.872-19.818,18.187-21.618l-3.862-21.27
				l-0.042-0.202L68.866,85.203l-18.819,0.124l-0.104-15.562l31.64-0.21l7.656,37.883l141.84,17.006l-18.018,68.659H106.356
				L109.007,207.695z"/>
		</g>
	</g>
</g>
<g>
</g>
<g>
</g>
<g>
</g>
<g>
</g>
<g>
</g>
<g>
</g>
<g>
</g>
<g>
</g>
<g>
</g>
<g>
</g>
<g>
</g>
<g>
</g>
<g>
</g>
<g>
</g>
<g>
</g>
</svg>
