<?xml version="1.0" encoding="iso-8859-1"?>
<!-- Generator: Adobe Illustrator 19.0.0, SVG Export Plug-In . SVG Version: 6.00 Build 0)  -->
<svg version="1.1" id="Layer_1" xmlns="http://www.w3.org/2000/svg" xmlns:xlink="http://www.w3.org/1999/xlink" x="0px" y="0px"
	 viewBox="0 0 300.005 300.005" style="enable-background:new 0 0 300.005 300.005;" xml:space="preserve">
<g>
	<g>
		<g>
			<rect x="137.494" y="226.914" width="32.024" height="15.562"/>
			<path d="M140.549,116.566v3.348h25.921v-3.348c0-7.145-5.815-12.958-12.963-12.958
				C146.361,103.608,140.549,109.423,140.549,116.566z"/>
			<path d="M156.028,198.374c0.542-1.961,1.458-3.699,2.604-5.211h-30.234c-6.751,0-12.242-5.491-12.242-12.239v-48.773
				c0-6.749,5.491-12.237,12.242-12.237h1.777v-3.348c0-12.864,10.468-23.332,23.332-23.332c12.87,0,23.337,10.468,23.337,23.332
				v3.348h1.774c6.749,0,12.239,5.488,12.239,12.237v16.389l6.891,14.641l11.352-5.213c0.83-0.386,1.681-0.716,2.539-1.022V75.039
				c0-3.304-2.827-5.994-6.297-5.994H101.669c-3.473,0-6.295,2.687-6.295,5.994v135.043c0,3.304,2.822,5.994,6.295,5.994h59.044
				C156.299,211.485,154.298,204.648,156.028,198.374z"/>
			<path d="M150,0C67.159,0,0.002,67.162,0.002,150S67.159,300.005,150,300.005c82.843,0,150.003-67.165,150.003-150.005
				S232.843,0,150,0z M261.959,233.053l-47.52,21.714c-0.685,0.311-1.419,0.469-2.155,0.469c-0.641,0-1.281-0.119-1.891-0.358
				c-1.307-0.511-2.352-1.533-2.894-2.83c-0.163-0.392-0.337-0.76-0.503-1.139H97.015c-10.847,0-19.639-8.792-19.639-19.636V73.288
				c0-10.847,8.795-19.642,19.639-19.642h112.981c10.847,0,19.639,8.798,19.639,19.642v83.24
				c10.253,2.9,19.631,10.862,25.223,21.924c4.272,8.45,4.593,19.291,3.465,26.624c-0.329,2.511,2.809,13.84,6.181,21.071
				c0.586,1.25,0.643,2.687,0.166,3.984C264.192,231.427,263.217,232.48,261.959,233.053z"/>
			<path d="M248.068,203.507c0.843-5.486,0.703-14.104-2.469-20.376c-5.353-10.6-14.939-17.45-24.419-17.45
				c-2.703,0-5.301,0.573-7.724,1.701l-16.049,7.371c-2.588,1.188-5.646,0.067-6.86-2.505l-13.456-28.584
				c-1.753-3.758-5.722-5.932-8.598-4.593c-1.717,0.799-2.404,2.482-2.661,3.413c-0.519,1.888-0.283,4.113,0.646,6.108
				l21.888,46.937c0.283,0.607,0.438,1.242,0.48,1.873c0.176,1.541-0.342,3.112-1.473,4.254c-1.53,1.541-3.857,1.966-5.843,1.058
				l-9.529-4.37c-0.711-0.327-1.421-0.493-2.106-0.493c-1.854,0-3.299,1.227-3.867,3.284c-0.957,3.47,1.079,7.835,4.357,9.334
				l27.749,12.706c0.233,0.106,0.456,0.228,0.669,0.368c0.405,0.265,9.062,6.007,16.016,19.647l38.264-17.484
				C250.366,218.646,247.313,208.466,248.068,203.507z"/>
		</g>
	</g>
</g>
<g>
</g>
<g>
</g>
<g>
</g>
<g>
</g>
<g>
</g>
<g>
</g>
<g>
</g>
<g>
</g>
<g>
</g>
<g>
</g>
<g>
</g>
<g>
</g>
<g>
</g>
<g>
</g>
<g>
</g>
</svg>
