<?xml version="1.0" encoding="utf-8"?>
<!-- Generator: Adobe Illustrator 21.0.0, SVG Export Plug-In . SVG Version: 6.00 Build 0)  -->
<svg version="1.1" id="Layer_1" xmlns="http://www.w3.org/2000/svg" xmlns:xlink="http://www.w3.org/1999/xlink" x="0px" y="0px"
	 viewBox="0 0 300 300" style="enable-background:new 0 0 300 300;" xml:space="preserve">
<path d="M150,0C67.2,0,0,67.2,0,150s67.2,150,150,150s150-67.2,150-150S232.8,0,150,0z M239,211.9c0,4.1-3.4,7.5-7.5,7.5h-63
	c-4.1,0-7.5-3.4-7.5-7.5v-37.7c0-4.1,3.4-7.5,7.5-7.5h7.2l-16-33.4h-19.3l-16.1,33.4h7.2c4.1,0,7.5,3.4,7.5,7.5v37.7
	c0,4.1-3.4,7.5-7.5,7.5h-63c-4.1,0-7.5-3.4-7.5-7.5v-37.7c0-4.1,3.4-7.5,7.5-7.5h39l16.1-33.4h-5c-4.1,0-7.5-3.4-7.5-7.5V88.1
	c0-4.1,3.4-7.5,7.5-7.5h63c4.1,0,7.5,3.4,7.5,7.5v37.7c0,4.1-3.4,7.5-7.5,7.5h-5l16,33.4h39c4.1,0,7.5,3.4,7.5,7.5V211.9z"/>
</svg>
