<?xml version="1.0" encoding="utf-8"?>
<!-- Generator: Adobe Illustrator 21.0.0, SVG Export Plug-In . SVG Version: 6.00 Build 0)  -->
<svg version="1.1" id="Layer_1" xmlns="http://www.w3.org/2000/svg" xmlns:xlink="http://www.w3.org/1999/xlink" x="0px" y="0px"
	 viewBox="0 0 300 300" style="enable-background:new 0 0 300 300;" xml:space="preserve">
<g>
	<g>
		<path d="M300,150C300,67.2,232.8,0,150,0S0,67.2,0,150s67.2,150,150,150S300,232.8,300,150z M150,133.3c-3.1,0-6.1-0.6-8.9-1.6
			L121,173.6c5.3,4.8,8.6,11.7,8.6,19.4c0,14.6-11.8,26.4-26.3,26.4c-14.6,0-26.4-11.8-26.4-26.4c0-14.6,11.8-26.4,26.4-26.4
			c1.4,0,2.8,0.1,4.1,0.4l21.4-44.6c-3.2-4.4-5.1-9.7-5.1-15.5c0-14.6,11.8-26.4,26.4-26.4c14.6,0,26.3,11.8,26.3,26.4
			c0,5.8-1.9,11.2-5.1,15.5l21.4,44.6c1.3-0.2,2.7-0.4,4.1-0.4c14.6,0,26.4,11.8,26.4,26.4c0,14.6-11.8,26.4-26.4,26.4
			c-14.6,0-26.4-11.8-26.4-26.4c0-7.7,3.3-14.6,8.6-19.4l-20.1-41.9C156.1,132.7,153.1,133.3,150,133.3z"/>
	</g>
</g>
</svg>
