<?xml version="1.0" encoding="iso-8859-1"?>
<!-- Generator: Adobe Illustrator 19.0.0, SVG Export Plug-In . SVG Version: 6.00 Build 0)  -->
<svg version="1.1" id="Layer_1" xmlns="http://www.w3.org/2000/svg" xmlns:xlink="http://www.w3.org/1999/xlink" x="0px" y="0px"
	 viewBox="0 0 300 300" style="enable-background:new 0 0 300 300;" xml:space="preserve">
<g>
	<g>
		<path d="M149.997,0C67.158,0,0.003,67.161,0.003,149.997S67.158,300,149.997,300s150-67.163,150-150.003S232.837,0,149.997,0z
			 M222.978,99.461l-32.435,30.711l20.562,82.844l-12.27,12.27l-39.262-64.028l-0.905-0.905l-40.385,38.24
			c-0.228,0.231-0.485,0.405-0.718,0.622l-1.297,29.481l-44.965-44.962l29.471-1.294c0.218-0.239,0.394-0.493,0.625-0.724
			l38.24-40.387L139.314,141l-64.601-39.832l12.27-12.27l82.471,20.946l31.079-32.827c6.201-6.201,16.251-6.199,22.447,0
			C229.177,83.215,229.177,93.263,222.978,99.461z"/>
	</g>
</g>
<g>
</g>
<g>
</g>
<g>
</g>
<g>
</g>
<g>
</g>
<g>
</g>
<g>
</g>
<g>
</g>
<g>
</g>
<g>
</g>
<g>
</g>
<g>
</g>
<g>
</g>
<g>
</g>
<g>
</g>
</svg>
