<?xml version="1.0" encoding="iso-8859-1"?>
<!-- Generator: Adobe Illustrator 19.0.0, SVG Export Plug-In . SVG Version: 6.00 Build 0)  -->
<svg version="1.1" id="Layer_1" xmlns="http://www.w3.org/2000/svg" xmlns:xlink="http://www.w3.org/1999/xlink" x="0px" y="0px"
	 viewBox="0 0 299.995 299.995" style="enable-background:new 0 0 299.995 299.995;" xml:space="preserve">
<g>
	<g>
		<path d="M149.995,0C67.156,0,0,67.158,0,149.995s67.156,150,149.995,150s150-67.163,150-150S232.834,0,149.995,0z M81.542,161.215
			c-15.284-16.988-16.155-42.353,0-58.511c16.155-16.158,42.345-16.155,58.503,0l1.567,1.567l-21.739,50.064
			c-0.003,0.01-0.005,0.021-0.01,0.031c-0.148,0.348-0.249,0.713-0.345,1.084c-0.036,0.137-0.099,0.27-0.124,0.405
			c-0.023,0.106-0.018,0.223-0.036,0.332c-0.065,0.407-0.122,0.814-0.122,1.222c0,0.01-0.003,0.018-0.003,0.029
			c0,0.135,0.034,0.259,0.039,0.389c0.018,0.371,0.041,0.739,0.112,1.102c0.047,0.244,0.132,0.469,0.202,0.703
			c0.073,0.246,0.132,0.495,0.228,0.734c0.099,0.241,0.228,0.462,0.35,0.69c0.114,0.218,0.215,0.438,0.35,0.646
			c0.135,0.202,0.296,0.381,0.449,0.573c0.163,0.202,0.314,0.412,0.495,0.599c0.176,0.179,0.379,0.332,0.573,0.493
			c0.189,0.161,0.368,0.332,0.576,0.475c0.293,0.202,0.615,0.363,0.936,0.524c0.127,0.062,0.239,0.15,0.371,0.208
			c0.008,0.005,0.018,0.005,0.029,0.008c0.48,0.207,0.98,0.371,1.504,0.48c0.521,0.106,1.043,0.161,1.564,0.161
			c0.01,0,0.023-0.003,0.036-0.003h30.913l-20.207,46.544C121.468,198.199,93.162,174.128,81.542,161.215z M218.455,161.215
			c-16.768,18.632-68.294,60.508-68.294,60.508h-0.205c0.542-0.604,1.004-1.299,1.346-2.085l25.658-59.105
			c0.003-0.008,0.005-0.016,0.008-0.023c0.156-0.363,0.262-0.744,0.363-1.133c0.031-0.122,0.086-0.241,0.112-0.363
			c0.021-0.099,0.018-0.205,0.034-0.306c0.07-0.415,0.127-0.835,0.127-1.25c0-0.008,0.003-0.016,0.003-0.023
			c0-0.117-0.031-0.226-0.036-0.34c-0.016-0.389-0.041-0.778-0.114-1.154c-0.049-0.239-0.132-0.456-0.197-0.685
			c-0.073-0.254-0.135-0.508-0.236-0.755c-0.096-0.239-0.228-0.459-0.35-0.687c-0.114-0.215-0.215-0.438-0.35-0.643
			c-0.137-0.207-0.301-0.389-0.456-0.586c-0.161-0.197-0.306-0.405-0.488-0.589c-0.184-0.189-0.394-0.348-0.599-0.516
			c-0.182-0.153-0.35-0.316-0.547-0.451c-0.314-0.215-0.654-0.389-0.999-0.558c-0.109-0.054-0.2-0.127-0.314-0.176
			c-0.008-0.003-0.016-0.003-0.023-0.008c-0.355-0.153-0.729-0.257-1.11-0.355c-0.13-0.034-0.254-0.093-0.384-0.119
			c-0.101-0.021-0.213-0.018-0.316-0.034c-0.412-0.067-0.825-0.124-1.237-0.124c-0.01,0-0.018-0.003-0.029-0.003h-30.949
			l19.859-45.733l1.219-1.219c16.155-16.155,42.345-16.155,58.506,0C234.608,118.861,233.734,144.227,218.455,161.215z"/>
	</g>
</g>
<g>
</g>
<g>
</g>
<g>
</g>
<g>
</g>
<g>
</g>
<g>
</g>
<g>
</g>
<g>
</g>
<g>
</g>
<g>
</g>
<g>
</g>
<g>
</g>
<g>
</g>
<g>
</g>
<g>
</g>
</svg>
