<?xml version="1.0" encoding="iso-8859-1"?>
<!-- Generator: Adobe Illustrator 19.0.0, SVG Export Plug-In . SVG Version: 6.00 Build 0)  -->
<svg version="1.1" id="Layer_1" xmlns="http://www.w3.org/2000/svg" xmlns:xlink="http://www.w3.org/1999/xlink" x="0px" y="0px"
	 viewBox="0 0 300 300" style="enable-background:new 0 0 300 300;" xml:space="preserve">
<g>
	<g>
		<g>
			<path d="M204.572,164.656c1.678,6.632-16.682,4.528-21.166,10.737c-4.487,6.206-15.45,2.036-17.992,0.843
				s-12.278,2.783-11.427-3.976c0.846-6.761,6.769-7.158,13.121-9.941c6.349-2.78,15.507-12.024,11.007-13.232
				c-21.187-5.683-28.415-25.586-28.415-25.586c-1.271-0.239-0.952-14.07-6.453-14.467c-5.506-0.399-8.471,1.59-16.511,0
				c-8.045-1.59-6.349-6.759-7.62-17.893c-1.268-11.134,3.39-7.555,5.906-11.132c0.22-0.314,0.506-0.594,0.786-0.874
				C96.35,89.221,75.103,117.17,75.103,150.002c0,0.052,0.003,0.104,0.003,0.156c5.475,0.353,15.445,1.509,15.914,5.265
				c0.648,5.187,0,11.671,4.539,13.616s5.836-7.781,9.726-5.187c3.89,2.594,14.265,5.091,14.265,9.677c0,4.585-1.945,11.72,0,13.017
				s9.721,10.374,9.723,11.671c0.003,1.297,2.741,7.892,1.924,10.413c-0.677,2.09-4.093,8.58-7.405,11.531
				c8.162,3.058,16.991,4.741,26.208,4.741c41.3,0,74.9-33.6,74.9-74.9c0-12.231-2.967-23.778-8.188-33.986
				c0.501,7.617,0.163,14.558,1.831,16.832C225.842,142.787,200.762,149.624,204.572,164.656z"/>
			<path d="M149.997,0C67.158,0,0.003,67.161,0.003,149.997S67.158,300,149.997,300s150-67.163,150-150.003S232.837,0,149.997,0z
				 M150,240.462c-49.88,0-90.462-40.579-90.462-90.462S100.12,59.538,150,59.538s90.462,40.579,90.462,90.462
				S199.88,240.462,150,240.462z"/>
		</g>
	</g>
</g>
<g>
</g>
<g>
</g>
<g>
</g>
<g>
</g>
<g>
</g>
<g>
</g>
<g>
</g>
<g>
</g>
<g>
</g>
<g>
</g>
<g>
</g>
<g>
</g>
<g>
</g>
<g>
</g>
<g>
</g>
</svg>
