<?xml version="1.0" encoding="iso-8859-1"?>
<!-- Generator: Adobe Illustrator 19.0.0, SVG Export Plug-In . SVG Version: 6.00 Build 0)  -->
<svg version="1.1" id="Layer_1" xmlns="http://www.w3.org/2000/svg" xmlns:xlink="http://www.w3.org/1999/xlink" x="0px" y="0px"
	 viewBox="0 0 300 300" style="enable-background:new 0 0 300 300;" xml:space="preserve">
<g>
	<g>
		<g>
			<path d="M149.996,0C67.157,0,0.001,67.161,0.001,149.997S67.157,300,149.996,300s150.003-67.163,150.003-150.003
				S232.835,0,149.996,0z M226.946,224.021L226.946,224.021c-0.001,8.593-6.97,15.562-15.563,15.562H88.622
				c-8.593,0-15.562-6.969-15.562-15.562V75.323c0-8.593,6.969-15.562,15.562-15.562h122.762c8.593,0,15.562,6.969,15.562,15.562
				V224.021z"/>
			<path d="M183.261,161.5h-66.52c-3.919,0-7.091,3.177-7.091,7.091v41.272c0,3.919,3.175,7.091,7.091,7.091h66.52
				c3.919,0,7.091-3.175,7.091-7.091v-41.272C190.355,164.674,187.18,161.5,183.261,161.5z"/>
			<rect x="84.775" y="112.932" width="13.401" height="15.562"/>
			<rect x="84.775" y="83.646" width="13.401" height="15.562"/>
			<rect x="84.775" y="200.793" width="13.401" height="15.562"/>
			<rect x="84.775" y="171.506" width="13.401" height="15.562"/>
			<rect x="84.775" y="142.219" width="13.401" height="15.562"/>
			<path d="M183.261,82.396h-66.52c-3.919,0-7.091,3.177-7.091,7.091v41.272c0,3.919,3.175,7.091,7.091,7.091h66.52
				c3.919,0,7.091-3.175,7.091-7.091V89.486C190.355,85.57,187.18,82.396,183.261,82.396z"/>
			<rect x="201.92" y="83.646" width="13.401" height="15.562"/>
			<rect x="201.92" y="200.793" width="13.401" height="15.562"/>
			<rect x="201.92" y="112.932" width="13.401" height="15.562"/>
			<rect x="201.92" y="171.506" width="13.401" height="15.562"/>
			<rect x="201.92" y="142.219" width="13.401" height="15.562"/>
		</g>
	</g>
</g>
<g>
</g>
<g>
</g>
<g>
</g>
<g>
</g>
<g>
</g>
<g>
</g>
<g>
</g>
<g>
</g>
<g>
</g>
<g>
</g>
<g>
</g>
<g>
</g>
<g>
</g>
<g>
</g>
<g>
</g>
</svg>
