<?xml version="1.0" encoding="iso-8859-1"?>
<!-- Generator: Adobe Illustrator 19.0.0, SVG Export Plug-In . SVG Version: 6.00 Build 0)  -->
<svg version="1.1" id="Layer_1" xmlns="http://www.w3.org/2000/svg" xmlns:xlink="http://www.w3.org/1999/xlink" x="0px" y="0px"
	 viewBox="0 0 300 300" style="enable-background:new 0 0 300 300;" xml:space="preserve">
<g>
	<g>
		<g>
			<circle cx="192.147" cy="134.719" r="8.808"/>
			<circle cx="206.357" cy="120.516" r="8.808"/>
			<polygon points="94.61,117.808 81.642,117.808 81.642,130.128 69.323,130.128 69.323,143.096 81.642,143.096 81.642,155.415 
				94.61,155.415 94.61,143.096 106.93,143.096 106.93,130.128 94.61,130.128 			"/>
			<path d="M149.996,0C67.157,0,0.001,67.161,0.001,149.997S67.157,300,149.996,300s150.003-67.163,150.003-150.003
				S232.835,0,149.996,0z M227.064,216.092h-13.279l-28.61-45.637h-31.46h-7.431h-31.46l-28.612,45.637H72.933
				c-10.468,0-18.957-8.486-18.957-18.957l4.212-66.349c0-0.213,0.026-0.379,0.031-0.578c-0.003-0.213-0.031-0.418-0.031-0.633
				c0-22.403,18.163-40.566,40.566-40.566c9.288,0,15.717,3.156,22.554,8.411c8.751-2.539,13.105-4.728,24.974-5.382h7.431
				c11.868,0.654,16.223,2.843,24.974,5.382c6.839-5.255,13.266-8.411,22.554-8.411c22.403,0,40.566,18.163,40.566,40.566
				c0,0.215-0.029,0.42-0.031,0.633c0.005,0.197,0.031,0.366,0.031,0.578l4.212,66.349
				C246.018,207.606,237.535,216.092,227.064,216.092z"/>
			<circle cx="220.565" cy="134.721" r="8.808"/>
			<circle cx="206.355" cy="148.931" r="8.808"/>
		</g>
	</g>
</g>
<g>
</g>
<g>
</g>
<g>
</g>
<g>
</g>
<g>
</g>
<g>
</g>
<g>
</g>
<g>
</g>
<g>
</g>
<g>
</g>
<g>
</g>
<g>
</g>
<g>
</g>
<g>
</g>
<g>
</g>
</svg>
