<?xml version="1.0" encoding="iso-8859-1"?>
<!-- Generator: Adobe Illustrator 19.0.0, SVG Export Plug-In . SVG Version: 6.00 Build 0)  -->
<svg version="1.1" id="Layer_1" xmlns="http://www.w3.org/2000/svg" xmlns:xlink="http://www.w3.org/1999/xlink" x="0px" y="0px"
	 viewBox="0 0 299.995 299.995" style="enable-background:new 0 0 299.995 299.995;" xml:space="preserve">
<g>
	<g>
		<g>
			<path d="M165.45,108.207l-9.788,9.786c-1.945,1.943-4.658,2.638-7.158,2.101c-1.541-0.241-3.009-0.936-4.173-2.103l-9.783-9.783
				c-6.549-6.546-15.149-9.822-23.749-9.822c-8.6,0-17.201,3.273-23.749,9.822c-12.82,12.823-12.698,33.374,0.283,47.805
				c13.232,14.708,49.605,45.027,62.666,55.788c13.061-10.758,49.442-41.085,62.677-55.788c12.978-14.428,13.1-34.982,0.28-47.805
				C199.859,95.115,178.55,95.112,165.45,108.207z"/>
			<path d="M149.995,0C67.156,0,0,67.158,0,149.995s67.156,150,149.995,150s150-67.163,150-150S232.834,0,149.995,0z
				 M224.239,166.417c-16.98,18.866-67.049,59.619-69.174,61.343c-1.489,1.211-3.286,1.826-5.07,1.74
				c-0.054,0.003-0.112,0.003-0.169,0.003c-1.725,0-3.46-0.571-4.902-1.743c-2.124-1.725-52.188-42.478-69.163-61.341
				c-18.612-20.689-18.49-50.445,0.283-69.218c19.161-19.164,50.344-19.164,69.506,0l4.448,4.448l4.451-4.451
				c19.161-19.161,50.341-19.159,69.508,0C242.726,115.975,242.848,145.731,224.239,166.417z"/>
		</g>
	</g>
</g>
<g>
</g>
<g>
</g>
<g>
</g>
<g>
</g>
<g>
</g>
<g>
</g>
<g>
</g>
<g>
</g>
<g>
</g>
<g>
</g>
<g>
</g>
<g>
</g>
<g>
</g>
<g>
</g>
<g>
</g>
</svg>
