<?xml version="1.0" encoding="iso-8859-1"?>
<!-- Generator: Adobe Illustrator 19.0.0, SVG Export Plug-In . SVG Version: 6.00 Build 0)  -->
<svg version="1.1" id="Layer_1" xmlns="http://www.w3.org/2000/svg" xmlns:xlink="http://www.w3.org/1999/xlink" x="0px" y="0px"
	 viewBox="0 0 299.994 299.994" style="enable-background:new 0 0 299.994 299.994;" xml:space="preserve">
<g>
	<g>
		<g>
			<path d="M148.75,87.806c-17.424,0.568-37.578,10.605-37.576,37.143c0,13.445,7.965,21.42,16.402,29.865
				c3.278,3.278,6.608,6.611,9.306,10.32h23.739c2.695-3.706,6.025-7.042,9.306-10.32c8.434-8.445,16.399-16.42,16.399-29.865
				C186.326,98.411,166.171,88.374,148.75,87.806z"/>
			<path d="M149.997,0C67.156,0,0,67.156,0,149.997c0,82.839,67.156,149.997,149.997,149.997s149.997-67.158,149.997-149.997
				C299.995,67.156,232.839,0,149.997,0z M148.75,218.471c-12.893,0-23.342-11.085-23.342-24.766h46.685
				C172.095,207.388,161.643,218.471,148.75,218.471z M170.412,180.695h-43.326c-1.167-12.753-31.476-23.871-31.476-55.747
				c0-34.002,25.425-52.027,53.137-52.709c0,0,0,0,0.005,0c27.71,0.682,53.135,18.708,53.135,52.709
				C201.887,156.824,171.576,167.942,170.412,180.695z"/>
		</g>
	</g>
</g>
<g>
</g>
<g>
</g>
<g>
</g>
<g>
</g>
<g>
</g>
<g>
</g>
<g>
</g>
<g>
</g>
<g>
</g>
<g>
</g>
<g>
</g>
<g>
</g>
<g>
</g>
<g>
</g>
<g>
</g>
</svg>
