<?xml version="1.0" encoding="iso-8859-1"?>
<!-- Generator: Adobe Illustrator 19.0.0, SVG Export Plug-In . SVG Version: 6.00 Build 0)  -->
<svg version="1.1" id="Layer_1" xmlns="http://www.w3.org/2000/svg" xmlns:xlink="http://www.w3.org/1999/xlink" x="0px" y="0px"
	 viewBox="0 0 300 300" style="enable-background:new 0 0 300 300;" xml:space="preserve">
<g>
	<g>
		<g>
			<path d="M149.996,0C67.157,0,0.001,67.161,0.001,149.997S67.157,300,149.996,300s150.003-67.163,150.003-150.003
				S232.835,0,149.996,0z M225.363,123.302l-36.686,36.686c-3.979,3.979-9.269,6.17-14.895,6.17c-5.625,0-10.916-2.192-14.895-6.168
				l-1.437-1.437l-3.906,3.906l1.434,1.434c8.214,8.214,8.214,21.579,0,29.793l-36.681,36.686c-3.979,3.979-9.269,6.17-14.898,6.17
				c-5.628,0-10.919-2.192-14.9-6.173L74.634,216.5c-8.214-8.209-8.214-21.573-0.003-29.79l36.689-36.684
				c3.979-3.979,9.269-6.17,14.898-6.17s10.916,2.192,14.898,6.17l1.432,1.432l3.906-3.906l-1.432-1.432
				c-8.214-8.211-8.214-21.576-0.005-29.79l36.689-36.686c3.981-3.981,9.272-6.173,14.898-6.173s10.916,2.192,14.898,6.17
				l13.868,13.873C233.577,101.723,233.577,115.09,225.363,123.302z"/>
			<path d="M142.539,173.459l-7.093,7.093l-11.002-10.999l7.093-7.093l-1.432-1.432c-1.04-1.037-2.422-1.611-3.89-1.611
				c-1.471,0-2.853,0.573-3.893,1.611l-36.686,36.681c-2.145,2.147-2.145,5.638,0,7.783l13.87,13.873
				c2.083,2.083,5.708,2.08,7.786,0.003l36.681-36.686c2.148-2.147,2.148-5.641,0-7.789L142.539,173.459z"/>
			<path d="M200.493,90.643c-1.04-1.04-2.425-1.613-3.896-1.613c-1.471,0-2.856,0.573-3.896,1.616l-36.686,36.684
				c-2.142,2.147-2.142,5.638,0.003,7.786l1.434,1.432l10.88-10.883l11.002,11.002l-10.88,10.883l1.434,1.434
				c2.083,2.077,5.703,2.08,7.786-0.003l36.684-36.681c2.145-2.147,2.145-5.638,0-7.786L200.493,90.643z"/>
		</g>
	</g>
</g>
<g>
</g>
<g>
</g>
<g>
</g>
<g>
</g>
<g>
</g>
<g>
</g>
<g>
</g>
<g>
</g>
<g>
</g>
<g>
</g>
<g>
</g>
<g>
</g>
<g>
</g>
<g>
</g>
<g>
</g>
</svg>
