<?xml version="1.0" encoding="iso-8859-1"?>
<!-- Generator: Adobe Illustrator 19.0.0, SVG Export Plug-In . SVG Version: 6.00 Build 0)  -->
<svg version="1.1" id="Layer_1" xmlns="http://www.w3.org/2000/svg" xmlns:xlink="http://www.w3.org/1999/xlink" x="0px" y="0px"
	 viewBox="0 0 299.995 299.995" style="enable-background:new 0 0 299.995 299.995;" xml:space="preserve">
<g>
	<g>
		<g>
			<path d="M143.511,154.004c19.146,0,23.718-15.613,23.718-28.711c0-13.098-10.621-23.718-23.718-23.718
				c-13.097,0-23.721,10.621-23.721,23.718C119.79,138.391,126.082,154.004,143.511,154.004z"/>
			<path d="M146.815,157.301h-3.304h-3.304c-13.002,0-32.498,11.91-32.498,26.61c0,14.7-4.409,26.615,8.59,26.615h27.214h27.214
				c12.999,0,8.59-11.915,8.59-26.615S159.817,157.301,146.815,157.301z"/>
			<path d="M149.992,0.001C67.156,0.001,0,67.159,0,149.998s67.156,149.997,149.992,149.997
				c82.842,0,150.003-67.161,150.003-149.997C299.995,67.157,232.834,0.001,149.992,0.001z M210.947,217.132v10.374
				c0,5.729-4.645,10.374-10.374,10.374h-10.374h-57.256H96.829c-11.458,0-20.749-9.29-20.749-20.749V86.589
				c0-11.458,9.29-20.749,20.749-20.749h36.113h57.256h10.374c5.729,0,10.374,4.645,10.374,10.374v10.375h0.001V217.132z
				 M231.695,86.589v130.543v10.374c0,5.729-4.645,10.374-10.374,10.374h-2.806c1.774-3.058,2.806-6.593,2.806-10.374v-10.374
				V86.589V76.215c0-3.781-1.032-7.319-2.806-10.374h2.806c5.729,0,10.374,4.645,10.374,10.374V86.589z"/>
		</g>
	</g>
</g>
<g>
</g>
<g>
</g>
<g>
</g>
<g>
</g>
<g>
</g>
<g>
</g>
<g>
</g>
<g>
</g>
<g>
</g>
<g>
</g>
<g>
</g>
<g>
</g>
<g>
</g>
<g>
</g>
<g>
</g>
</svg>
