<?xml version="1.0" encoding="iso-8859-1"?>
<!-- Generator: Adobe Illustrator 19.0.0, SVG Export Plug-In . SVG Version: 6.00 Build 0)  -->
<svg version="1.1" id="Layer_1" xmlns="http://www.w3.org/2000/svg" xmlns:xlink="http://www.w3.org/1999/xlink" x="0px" y="0px"
	 viewBox="0 0 300 300" style="enable-background:new 0 0 300 300;" xml:space="preserve">
<g>
	<g>
		<g>
			<rect x="137.031" y="218.953" width="25.936" height="15.562"/>
			<path d="M193.063,73.435h-86.128c-3.665,0-6.647,2.843-6.647,6.331v123.592c0,3.491,2.98,6.331,6.647,6.331h86.13
				c3.665,0,6.647-2.843,6.647-6.331V79.766C199.71,76.275,196.73,73.435,193.063,73.435z"/>
			<path d="M149.996,0C67.157,0,0.001,67.161,0.001,149.997S67.157,300,149.996,300s150.003-67.163,150.003-150.003
				S232.835,0,149.996,0z M218.729,221.427c0,11.458-9.29,20.749-20.749,20.749h-95.963c-11.458,0-20.749-9.29-20.749-20.749V77.916
				c0-11.458,9.29-20.749,20.749-20.749h95.963c11.458,0,20.749,9.29,20.749,20.749V221.427z"/>
		</g>
	</g>
</g>
<g>
</g>
<g>
</g>
<g>
</g>
<g>
</g>
<g>
</g>
<g>
</g>
<g>
</g>
<g>
</g>
<g>
</g>
<g>
</g>
<g>
</g>
<g>
</g>
<g>
</g>
<g>
</g>
<g>
</g>
</svg>
