<?xml version="1.0" encoding="iso-8859-1"?>
<!-- Generator: Adobe Illustrator 19.0.0, SVG Export Plug-In . SVG Version: 6.00 Build 0)  -->
<svg version="1.1" id="Layer_1" xmlns="http://www.w3.org/2000/svg" xmlns:xlink="http://www.w3.org/1999/xlink" x="0px" y="0px"
	 viewBox="0 0 300 300" style="enable-background:new 0 0 300 300;" xml:space="preserve">
<g>
	<g>
		<path d="M149.997,0.003C67.156,0.003,0,67.161,0,150s67.156,149.997,149.997,149.997C232.834,299.997,300,232.837,300,150
			C300,67.158,232.834,0.003,149.997,0.003z M110.967,81.483l31.712-31.709c2.077-2.075,4.79-3.105,7.506-3.105
			c0.026,0,0.054,0,0.078,0c0.029,0,0.054,0,0.078,0c2.715,0,5.434,1.03,7.511,3.105l31.707,31.709c4.15,4.147,4.15,10.872,0,15.017
			c-2.072,2.075-4.793,3.112-7.508,3.112c-2.721,0-5.436-1.037-7.508-3.112l-14.016-14.013v32.259v20.749v3.888
			c0,5.867-4.757,10.621-10.623,10.621c-5.867,0-10.618-4.754-10.618-10.621v-3.888v-20.749V83.207l-13.297,13.295
			c-2.077,2.075-4.793,3.112-7.508,3.112c-2.721,0-5.436-1.037-7.511-3.112C106.819,92.355,106.819,85.627,110.967,81.483z
			 M231.576,209.318h-0.003c0,14.335-14.057,25.565-32.005,25.565h-99.132c-17.945,0-32.005-11.23-32.005-25.565V140.31
			c0-14.337,14.057-25.568,32.005-25.568h13.385c1.522,0.272,3.079,0.431,4.658,0.431c1.569,0,3.115-0.161,4.63-0.431h0.612v20.749
			h-23.285c-7.265,0-11.256,3.621-11.256,4.819v69.008c0,1.198,3.992,4.816,11.256,4.816h99.135c7.265,0,11.256-3.621,11.256-4.816
			V140.31c0-1.198-3.992-4.819-11.256-4.819h-23.485v-20.749h1.437c1.481,0.257,2.988,0.431,4.526,0.431
			c1.579,0,3.133-0.158,4.658-0.431h12.864c17.948,0,32.005,11.233,32.005,25.568V209.318z"/>
	</g>
</g>
<g>
</g>
<g>
</g>
<g>
</g>
<g>
</g>
<g>
</g>
<g>
</g>
<g>
</g>
<g>
</g>
<g>
</g>
<g>
</g>
<g>
</g>
<g>
</g>
<g>
</g>
<g>
</g>
<g>
</g>
</svg>
