<?xml version="1.0" encoding="iso-8859-1"?>
<!-- Generator: Adobe Illustrator 19.0.0, SVG Export Plug-In . SVG Version: 6.00 Build 0)  -->
<svg version="1.1" id="Layer_1" xmlns="http://www.w3.org/2000/svg" xmlns:xlink="http://www.w3.org/1999/xlink" x="0px" y="0px"
	 viewBox="0 0 299.998 299.998" style="enable-background:new 0 0 299.998 299.998;" xml:space="preserve">
<g>
	<g>
		<g>
			<path d="M80.323,203.613h139.19V89.834H80.323V203.613z M149.997,105.459c12.112,0,21.929,9.819,21.929,21.929
				c0,12.115-9.817,21.931-21.929,21.931s-21.931-9.817-21.931-21.931C128.066,115.279,137.885,105.459,149.997,105.459z
				 M137.47,152.396c3.737,2.005,7.999,3.156,12.527,3.19c4.528-0.036,8.79-1.185,12.527-3.19
				c7.713,6.904,19.47,14.599,19.47,36.209h-31.79h-0.418h-31.79C117.998,166.995,129.754,159.3,137.47,152.396z"/>
			<path d="M149.995,0.001C67.156,0.001,0,67.16,0,149.999s67.156,149.997,149.995,149.997s150.003-67.161,150.003-149.997
				C299.997,67.157,232.834,0.001,149.995,0.001z M236.455,219.642c0,3.981-3.224,7.202-7.205,7.202H70.75
				c-3.981,0-7.205-3.221-7.205-7.202V80.353c0-3.979,3.224-7.202,7.205-7.202h158.497c3.981,0,7.205,3.224,7.205,7.202v139.288
				L236.455,219.642L236.455,219.642z"/>
		</g>
	</g>
</g>
<g>
</g>
<g>
</g>
<g>
</g>
<g>
</g>
<g>
</g>
<g>
</g>
<g>
</g>
<g>
</g>
<g>
</g>
<g>
</g>
<g>
</g>
<g>
</g>
<g>
</g>
<g>
</g>
<g>
</g>
</svg>
