<?xml version="1.0" encoding="iso-8859-1"?>
<!-- Generator: Adobe Illustrator 19.0.0, SVG Export Plug-In . SVG Version: 6.00 Build 0)  -->
<svg version="1.1" id="Layer_1" xmlns="http://www.w3.org/2000/svg" xmlns:xlink="http://www.w3.org/1999/xlink" x="0px" y="0px"
	 viewBox="0 0 299.998 299.998" style="enable-background:new 0 0 299.998 299.998;" xml:space="preserve">
<g>
	<g>
		<path d="M149.997,0C67.157,0,0.001,67.158,0.001,149.995s67.156,150.003,149.995,150.003s150-67.163,150-150.003
			S232.836,0,149.997,0z M150.453,220.761h-0.916H85.466c0-46.856,41.15-46.845,50.284-59.095l1.603-8.554
			c-2.695-1.411-5.187-3.286-7.457-5.498c-17.004-2.301-36.427-5.932-36.427-5.932c41.248-19.434-3.984-79.213,56.34-81.602v-0.026
			c0.062,0.003,0.122,0.01,0.184,0.013c0.062-0.003,0.122-0.01,0.184-0.013v0.026c60.324,2.389,15.089,62.168,56.34,81.602
			c0,0-19.418,3.631-36.422,5.932c-2.173,2.122-4.56,3.924-7.125,5.312l1.751,9.352c10.022,11.653,49.802,12.415,49.802,58.483
			H150.453z"/>
	</g>
</g>
<g>
</g>
<g>
</g>
<g>
</g>
<g>
</g>
<g>
</g>
<g>
</g>
<g>
</g>
<g>
</g>
<g>
</g>
<g>
</g>
<g>
</g>
<g>
</g>
<g>
</g>
<g>
</g>
<g>
</g>
</svg>
